include "freq.asm"

L11Music::
	Step 6, 0, 0, NOTE_A2
	Step 1, 0, 0, 0
	Step 7, 0, 0, NOTE_A2
	Step 1, 0, 0, 0
	Step 31, 0, 0, 0
	Step 7, 0, 0, NOTE_A2
	Step 1, 0, 0, 0
	Step 7, 0, 0, NOTE_A2
	Step 1, 0, 0, 0
	Step 31, 0, 0, 0
	Step 6, 0, 0, NOTE_C3
	Step 1, 0, 0, 0
	Step 7, 0, 0, NOTE_C3
	Step 1, 0, 0, 0
	Step 16, 0, 0, 0
	Step 6, 0, 0, NOTE_A2
	Step 1, 0, 0, 0
	Step 7, 0, 0, NOTE_A2
	Step 1, 0, 0, 0
	Step 31, 0, 0, 0
	Step 7, 0, 0, NOTE_A2
	Step 1, 0, 0, 0
	Step 7, 0, 0, NOTE_A2
	Step 1, 0, 0, 0
	Step 31, 0, 0, 0
	Step 6, 0, 0, NOTE_A2
	Step 1, 0, 0, 0
	Step 7, 0, 0, NOTE_A2
	Step 1, 0, 0, 0
	Step 16, 0, 0, 0
	Step 6, 0, 0, NOTE_A2
	Step 1, 0, 0, 0
	Step 7, 0, 0, NOTE_A2
	Step 1, 0, 0, 0
	Step 31, 0, 0, 0
	Step 7, 0, 0, NOTE_A2
	Step 1, 0, 0, 0
	Step 7, 0, 0, NOTE_A2
	Step 1, 0, 0, 0
	Step 31, 0, 0, 0
	Step 6, 0, 0, NOTE_C3
	Step 1, 0, 0, 0
	Step 7, 0, 0, NOTE_C3
	Step 1, 0, 0, 0
	Step 16, 0, 0, 0
	Step 6, 0, 0, NOTE_A2
	Step 1, 0, 0, 0
	Step 7, 0, 0, NOTE_A2
	Step 1, 0, 0, 0
	Step 31, 0, 0, 0
	Step 7, 0, 0, NOTE_A2
	Step 1, 0, 0, 0
	Step 7, 0, 0, NOTE_A2
	Step 1, 0, 0, 0
	Step 62, 0, 0, 0
	Step 14, 0, 0, NOTE_A2
	Step 1, 0, 0, 0
	Step 15, NOTE_C4, 0, NOTE_A3
	Step 1, NOTE_C4, 0, 0
	Step 14, NOTE_C4, 0, NOTE_A2
	Step 1, 0, 0, 0
	Step 15, NOTE_C4, 0, NOTE_A3
	Step 1, NOTE_C4, 0, 0
	Step 14, NOTE_C4, 0, NOTE_A2
	Step 1, 0, 0, 0
	Step 15, NOTE_C4, 0, NOTE_A3
	Step 1, NOTE_C4, 0, 0
	Step 14, NOTE_C4, 0, NOTE_A2
	Step 1, 0, 0, 0
	Step 15, NOTE_C4, 0, NOTE_A3
	Step 1, 0, 0, 0
	Step 14, NOTE_C4, 0, NOTE_G2
	Step 1, 0, 0, 0
	Step 15, NOTE_C4, 0, NOTE_G3
	Step 1, NOTE_C4, 0, 0
	Step 14, NOTE_C4, 0, NOTE_G2
	Step 1, 0, 0, 0
	Step 15, NOTE_C4, 0, NOTE_G3
	Step 1, NOTE_C4, 0, 0
	Step 14, NOTE_C4, 0, NOTE_G2
	Step 1, 0, 0, 0
	Step 15, NOTE_B3, 0, NOTE_G3
	Step 1, NOTE_B3, 0, 0
	Step 14, NOTE_B3, 0, NOTE_G2
	Step 1, 0, 0, 0
	Step 15, NOTE_B3, 0, NOTE_G3
	Step 1, 0, 0, 0
	Step 14, NOTE_B3, 0, NOTE_F2
	Step 1, 0, 0, 0
	Step 15, NOTE_A3, 0, NOTE_F3
	Step 1, NOTE_A3, 0, 0
	Step 14, NOTE_A3, 0, NOTE_F2
	Step 1, 0, 0, 0
	Step 15, NOTE_A3, 0, NOTE_F3
	Step 1, NOTE_A3, 0, 0
	Step 14, NOTE_A3, 0, NOTE_F2
	Step 1, 0, 0, 0
	Step 15, NOTE_A3, 0, NOTE_F3
	Step 1, NOTE_A3, 0, 0
	Step 14, NOTE_A3, 0, NOTE_F2
	Step 1, 0, 0, 0
	Step 15, NOTE_A3, 0, NOTE_F3
	Step 1, 0, 0, 0
	Step 14, NOTE_A3, 0, NOTE_D2
	Step 1, 0, 0, 0
	Step 15, NOTE_A3, 0, NOTE_D3
	Step 1, NOTE_A3, 0, 0
	Step 14, NOTE_A3, 0, NOTE_D2
	Step 1, 0, 0, 0
	Step 15, NOTE_A3, 0, NOTE_D3
	Step 1, NOTE_A3, 0, 0
	Step 14, NOTE_A3, 0, NOTE_E2
	Step 1, 0, 0, 0
	Step 15, NOTE_Ab3, 0, NOTE_E3
	Step 1, NOTE_Ab3, 0, 0
	Step 14, NOTE_Ab3, 0, NOTE_E2
	Step 1, 0, 0, 0
	Step 15, NOTE_Ab3, 0, NOTE_E3
	Step 1, 0, 0, 0
	Step 14, NOTE_Ab3, 0, NOTE_A2
	Step 1, 0, 0, 0
	Step 15, NOTE_E4, NOTE_C4, NOTE_A3
	Step 1, NOTE_E4, NOTE_C4, 0
	Step 14, NOTE_E4, NOTE_C4, NOTE_A2
	Step 1, 0, 0, 0
	Step 15, NOTE_E4, NOTE_C4, NOTE_A3
	Step 1, NOTE_E4, NOTE_C4, 0
	Step 14, NOTE_E4, NOTE_C4, NOTE_A2
	Step 1, 0, 0, 0
	Step 15, NOTE_E4, NOTE_C4, NOTE_A3
	Step 1, NOTE_E4, NOTE_C4, 0
	Step 14, NOTE_E4, NOTE_C4, NOTE_A2
	Step 1, 0, 0, 0
	Step 15, NOTE_E4, NOTE_C4, NOTE_A3
	Step 1, 0, 0, 0
	Step 14, NOTE_E4, NOTE_C4, NOTE_G2
	Step 1, 0, 0, 0
	Step 15, NOTE_E4, NOTE_C4, NOTE_G3
	Step 1, NOTE_E4, NOTE_C4, 0
	Step 14, NOTE_E4, NOTE_C4, NOTE_G2
	Step 1, 0, 0, 0
	Step 15, NOTE_E4, NOTE_C4, NOTE_G3
	Step 1, NOTE_E4, NOTE_C4, 0
	Step 14, NOTE_E4, NOTE_C4, NOTE_G2
	Step 1, 0, 0, 0
	Step 15, NOTE_E4, NOTE_B3, NOTE_G3
	Step 1, NOTE_E4, NOTE_B3, 0
	Step 14, NOTE_E4, NOTE_B3, NOTE_G2
	Step 1, 0, 0, 0
	Step 15, NOTE_E4, NOTE_B3, NOTE_G3
	Step 1, 0, 0, 0
	Step 14, NOTE_E4, NOTE_B3, NOTE_F2
	Step 1, 0, 0, 0
	Step 15, NOTE_F4, NOTE_A3, NOTE_F3
	Step 1, NOTE_F4, NOTE_A3, 0
	Step 14, NOTE_F4, NOTE_A3, NOTE_F2
	Step 1, 0, 0, 0
	Step 15, NOTE_F4, NOTE_A3, NOTE_F3
	Step 1, NOTE_F4, NOTE_A3, 0
	Step 14, NOTE_F4, NOTE_A3, NOTE_F2
	Step 1, 0, 0, 0
	Step 15, NOTE_F4, NOTE_A3, NOTE_F3
	Step 1, NOTE_F4, NOTE_A3, 0
	Step 14, NOTE_F4, NOTE_A3, NOTE_F2
	Step 1, 0, 0, 0
	Step 15, NOTE_F4, NOTE_A3, NOTE_F3
	Step 1, 0, 0, 0
	Step 14, NOTE_F4, NOTE_A3, NOTE_D2
	Step 1, 0, 0, 0
	Step 15, NOTE_D4, NOTE_A3, NOTE_D3
	Step 1, NOTE_D4, NOTE_A3, 0
	Step 14, NOTE_D4, NOTE_A3, NOTE_D2
	Step 1, 0, 0, 0
	Step 15, NOTE_D4, NOTE_A3, NOTE_D3
	Step 1, NOTE_D4, NOTE_A3, 0
	Step 14, NOTE_D4, NOTE_A3, NOTE_E2
	Step 1, 0, 0, 0
	Step 15, NOTE_Ab4, NOTE_Ab3, NOTE_E3
	Step 1, NOTE_Ab4, NOTE_Ab3, 0
	Step 14, NOTE_Ab4, NOTE_Ab3, NOTE_E2
	Step 1, 0, 0, 0
	Step 15, NOTE_Ab4, NOTE_Ab3, NOTE_E3
	Step 1, 0, 0, 0
	Step 14, NOTE_Ab4, NOTE_Ab3, NOTE_A2
	Step 1, 0, 0, 0
	Step 15, 0, 0, NOTE_A3
	Step 1, 0, 0, 0
	Step 14, 0, 0, NOTE_A2
	Step 1, 0, 0, 0
	Step 15, 0, 0, NOTE_A3
	Step 1, 0, 0, 0
	Step 14, 0, 0, NOTE_A2
	Step 1, 0, 0, 0
	Step 15, 0, 0, NOTE_A3
	Step 1, 0, 0, 0
	Step 14, 0, 0, NOTE_A2
	Step 1, 0, 0, 0
	Step 15, 0, 0, NOTE_A3
	Step 1, 0, 0, 0
	Step 14, 0, 0, NOTE_A2
	Step 1, 0, 0, 0
	Step 15, 0, 0, NOTE_A3
	Step 1, 0, 0, 0
	Step 14, 0, 0, NOTE_A2
	Step 1, 0, 0, 0
	Step 15, 0, 0, NOTE_A3
	Step 1, 0, 0, 0
	Step 14, 0, 0, NOTE_A2
	Step 1, 0, 0, 0
	Step 15, 0, 0, NOTE_A3
	Step 1, 0, 0, 0
	Step 14, 0, 0, NOTE_A2
	Step 1, 0, 0, 0
	Step 15, 0, 0, NOTE_A3
	Step 1, 0, 0, 0
	Step 6, 0, NOTE_A4, NOTE_A2
	Step 1, 0, 0, NOTE_A2
	Step 7, 0, NOTE_E4, NOTE_A2
	Step 1, 0, 0, 0
	Step 7, 0, NOTE_C4, NOTE_A3
	Step 1, 0, 0, NOTE_A3
	Step 7, 0, NOTE_A3, NOTE_A3
	Step 1, 0, 0, 0
	Step 6, 0, NOTE_E3, NOTE_A2
	Step 1, 0, 0, NOTE_A2
	Step 7, 0, NOTE_C3, NOTE_A2
	Step 1, 0, 0, 0
	Step 7, 0, NOTE_A2, NOTE_A3
	Step 1, 0, 0, NOTE_A3
	Step 7, 0, NOTE_E2, NOTE_A3
	Step 1, 0, 0, 0
	Step 6, 0, NOTE_A4, NOTE_A2
	Step 1, 0, 0, NOTE_A2
	Step 7, 0, NOTE_E4, NOTE_A2
	Step 1, 0, 0, 0
	Step 7, 0, NOTE_C4, NOTE_A3
	Step 1, 0, 0, NOTE_A3
	Step 7, 0, NOTE_A3, NOTE_A3
	Step 1, 0, 0, 0
	Step 6, 0, NOTE_E3, NOTE_A2
	Step 1, 0, 0, NOTE_A2
	Step 7, 0, NOTE_C3, NOTE_A2
	Step 1, 0, 0, 0
	Step 7, 0, NOTE_A2, NOTE_A3
	Step 1, 0, 0, NOTE_A3
	Step 7, 0, NOTE_E2, NOTE_A3
	Step 1, 0, 0, 0
	Step 6, 0, NOTE_C5, NOTE_A2
	Step 1, 0, 0, NOTE_A2
	Step 7, 0, NOTE_A4, NOTE_A2
	Step 1, 0, 0, 0
	Step 7, 0, NOTE_E4, NOTE_A3
	Step 1, 0, 0, NOTE_A3
	Step 7, 0, NOTE_C4, NOTE_A3
	Step 1, 0, 0, 0
	Step 6, 0, NOTE_A3, NOTE_A2
	Step 1, 0, 0, NOTE_A2
	Step 7, 0, NOTE_E3, NOTE_A2
	Step 1, 0, 0, 0
	Step 7, 0, NOTE_C3, NOTE_A3
	Step 1, 0, 0, NOTE_A3
	Step 7, 0, NOTE_A2, NOTE_A3
	Step 1, 0, 0, 0
	Step 6, 0, NOTE_A5, NOTE_A2
	Step 1, 0, 0, NOTE_A2
	Step 7, 0, NOTE_E5, NOTE_A2
	Step 1, 0, 0, 0
	Step 7, 0, NOTE_C5, NOTE_A3
	Step 1, 0, 0, NOTE_A3
	Step 7, 0, NOTE_A4, NOTE_A3
	Step 1, 0, 0, 0
	Step 6, 0, NOTE_C6, NOTE_A2
	Step 1, 0, 0, NOTE_A2
	Step 7, 0, NOTE_A5, NOTE_A2
	Step 1, 0, 0, 0
	Step 7, 0, NOTE_E5, NOTE_A3
	Step 1, 0, 0, NOTE_A3
	Step 7, 0, NOTE_C5, NOTE_A3
	Step 1, 0, 0, 0
	Step 14, 0, 0, NOTE_A2
	Step 1, 0, 0, 0
	Step 8, 0, 0, NOTE_A3
	Step 7, NOTE_G4, 0, NOTE_A3
	Step 1, 0, 0, 0
	Step 14, NOTE_A4, 0, NOTE_A2
	Step 1, NOTE_A4, 0, 0
	Step 15, NOTE_A4, 0, NOTE_A3
	Step 1, NOTE_A4, 0, 0
	Step 14, NOTE_A4, 0, NOTE_A2
	Step 1, NOTE_A4, 0, 0
	Step 15, NOTE_A4, 0, NOTE_A3
	Step 1, 0, 0, 0
	Step 14, 0, 0, NOTE_A2
	Step 1, 0, 0, 0
	Step 7, NOTE_G4, 0, NOTE_A3
	Step 1, 0, 0, NOTE_A3
	Step 7, NOTE_A4, 0, NOTE_A3
	Step 1, 0, 0, 0
	Step 14, NOTE_B4, 0, NOTE_G2
	Step 1, 0, 0, 0
	Step 15, NOTE_C5, 0, NOTE_G3
	Step 1, 0, 0, 0
	Step 6, NOTE_B4, 0, NOTE_G2
	Step 1, 0, 0, NOTE_G2
	Step 7, NOTE_C5, 0, NOTE_G2
	Step 1, 0, 0, 0
	Step 7, NOTE_B4, 0, NOTE_G3
	Step 1, 0, 0, NOTE_G3
	Step 7, NOTE_G4, 0, NOTE_G3
	Step 1, 0, 0, 0
	Step 6, NOTE_B4, 0, NOTE_G2
	Step 1, 0, 0, NOTE_G2
	Step 7, 0, 0, NOTE_G2
	Step 1, 0, 0, 0
	Step 7, NOTE_C5, 0, NOTE_G3
	Step 1, 0, 0, NOTE_G3
	Step 7, 0, 0, NOTE_G3
	Step 1, 0, 0, 0
	Step 6, NOTE_B4, 0, NOTE_G2
	Step 1, 0, 0, NOTE_G2
	Step 7, NOTE_G4, 0, NOTE_G2
	Step 1, NOTE_G4, 0, 0
	Step 15, NOTE_G4, 0, NOTE_G3
	Step 1, 0, 0, 0
	Step 14, NOTE_A4, 0, NOTE_F2
	Step 1, NOTE_A4, 0, 0
	Step 15, NOTE_A4, 0, NOTE_F3
	Step 1, NOTE_A4, 0, 0
	Step 14, NOTE_A4, 0, NOTE_F2
	Step 1, NOTE_A4, 0, 0
	Step 15, NOTE_A4, 0, NOTE_F3
	Step 1, 0, 0, 0
	Step 14, NOTE_A4, 0, NOTE_F2
	Step 1, NOTE_A4, 0, 0
	Step 15, NOTE_A4, 0, NOTE_F3
	Step 1, 0, 0, 0
	Step 14, 0, 0, NOTE_F2
	Step 1, 0, 0, 0
	Step 7, NOTE_F4, 0, NOTE_F3
	Step 1, 0, 0, NOTE_F3
	Step 7, NOTE_G4, 0, NOTE_F3
	Step 1, 0, 0, 0
	Step 14, NOTE_A4, 0, NOTE_E2
	Step 1, NOTE_A4, 0, 0
	Step 15, NOTE_A4, 0, NOTE_E3
	Step 1, NOTE_A4, 0, 0
	Step 14, NOTE_A4, 0, NOTE_E2
	Step 1, NOTE_A4, 0, 0
	Step 15, NOTE_A4, 0, NOTE_E3
	Step 1, 0, 0, 0
	Step 14, NOTE_Ab4, 0, NOTE_E2
	Step 1, NOTE_Ab4, 0, 0
	Step 15, NOTE_Ab4, 0, NOTE_E3
	Step 1, NOTE_Ab4, 0, 0
	Step 14, NOTE_Ab4, 0, NOTE_E2
	Step 1, NOTE_Ab4, 0, 0
	Step 15, NOTE_Ab4, 0, NOTE_E3
	Step 1, 0, 0, 0
	Step 6, NOTE_A4, 0, NOTE_A2
	Step 1, 0, 0, NOTE_A2
	Step 7, 0, 0, NOTE_A2
	Step 1, 0, 0, 0
	Step 8, 0, 0, NOTE_A3
	Step 7, NOTE_A4, 0, NOTE_A3
	Step 1, 0, 0, 0
	Step 14, NOTE_E5, 0, NOTE_A2
	Step 1, NOTE_E5, 0, 0
	Step 15, NOTE_E5, 0, NOTE_A3
	Step 1, NOTE_E5, 0, 0
	Step 14, NOTE_E5, 0, NOTE_A2
	Step 1, NOTE_E5, 0, 0
	Step 15, NOTE_E5, 0, NOTE_A3
	Step 1, 0, 0, 0
	Step 14, NOTE_E5, 0, NOTE_A2
	Step 1, 0, 0, 0
	Step 7, NOTE_D5, 0, NOTE_A3
	Step 1, 0, 0, NOTE_A3
	Step 7, NOTE_E5, 0, NOTE_A3
	Step 1, 0, 0, 0
	Step 14, NOTE_F5, 0, NOTE_G2
	Step 1, 0, 0, 0
	Step 7, NOTE_E5, 0, NOTE_G3
	Step 1, 0, 0, NOTE_G3
	Step 7, NOTE_F5, 0, NOTE_G3
	Step 1, 0, 0, 0
	Step 14, NOTE_G5, 0, NOTE_G2
	Step 1, 0, 0, 0
	Step 7, NOTE_F5, 0, NOTE_G3
	Step 1, 0, 0, NOTE_G3
	Step 7, NOTE_G5, 0, NOTE_G3
	Step 1, 0, 0, 0
	Step 14, NOTE_C6, 0, NOTE_G2
	Step 1, 0, 0, 0
	Step 15, NOTE_B5, 0, NOTE_G3
	Step 1, 0, 0, 0
	Step 14, NOTE_A5, 0, NOTE_G2
	Step 1, 0, 0, 0
	Step 15, NOTE_G5, 0, NOTE_G3
	Step 1, 0, 0, 0
	Step 14, NOTE_A5, 0, NOTE_F2
	Step 1, NOTE_A5, 0, 0
	Step 15, NOTE_A5, 0, NOTE_F3
	Step 1, NOTE_A5, 0, 0
	Step 14, NOTE_A5, 0, NOTE_F2
	Step 1, NOTE_A5, 0, 0
	Step 15, NOTE_A5, 0, NOTE_F3
	Step 1, 0, 0, 0
	Step 14, NOTE_A5, 0, NOTE_F2
	Step 1, NOTE_A5, 0, 0
	Step 15, NOTE_A5, 0, NOTE_F3
	Step 1, 0, 0, 0
	Step 14, NOTE_A5, 0, NOTE_F2
	Step 1, NOTE_A5, 0, 0
	Step 7, NOTE_A5, 0, NOTE_F3
	Step 1, 0, 0, NOTE_F3
	Step 3, NOTE_F5, 0, NOTE_F3
	Step 1, 0, 0, NOTE_F3
	Step 3, NOTE_G5, 0, NOTE_F3
	Step 1, 0, 0, 0
	Step 14, NOTE_A5, 0, NOTE_E2
	Step 1, NOTE_A5, 0, 0
	Step 15, NOTE_A5, 0, NOTE_E3
	Step 1, 0, 0, 0
	Step 14, NOTE_A5, 0, NOTE_E2
	Step 1, NOTE_A5, 0, 0
	Step 7, NOTE_A5, 0, NOTE_E3
	Step 1, 0, 0, NOTE_E3
	Step 3, NOTE_Ab5, 0, NOTE_E3
	Step 1, 0, 0, NOTE_E3
	Step 3, NOTE_A5, 0, NOTE_E3
	Step 1, 0, 0, 0
	Step 14, NOTE_B5, 0, NOTE_E2
	Step 1, NOTE_B5, 0, 0
	Step 15, NOTE_B5, 0, NOTE_E3
	Step 1, 0, 0, 0
	Step 14, NOTE_E5, 0, NOTE_E2
	Step 1, NOTE_E5, 0, 0
	Step 15, NOTE_E5, 0, NOTE_E3
	Step 1, 0, 0, 0
	Step 14, NOTE_E5, 0, NOTE_C3
	Step 1, NOTE_E5, 0, 0
	Step 15, NOTE_E5, 0, NOTE_C4
	Step 1, NOTE_E5, 0, 0
	Step 14, NOTE_E5, 0, NOTE_C3
	Step 1, NOTE_E5, 0, 0
	Step 15, NOTE_E5, 0, NOTE_C4
	Step 1, 0, 0, 0
	Step 14, NOTE_D5, 0, NOTE_C3
	Step 1, NOTE_D5, 0, 0
	Step 15, NOTE_D5, 0, NOTE_C4
	Step 1, 0, 0, 0
	Step 14, NOTE_D5, 0, NOTE_C3
	Step 1, 0, 0, 0
	Step 7, NOTE_E5, 0, NOTE_C4
	Step 1, 0, 0, NOTE_C4
	Step 7, NOTE_D5, 0, NOTE_C4
	Step 1, 0, 0, 0
	Step 14, NOTE_C5, 0, NOTE_A2
	Step 1, NOTE_C5, 0, 0
	Step 15, NOTE_C5, 0, NOTE_A3
	Step 1, NOTE_C5, 0, 0
	Step 14, NOTE_C5, 0, NOTE_A2
	Step 1, NOTE_C5, 0, 0
	Step 15, NOTE_C5, 0, NOTE_A3
	Step 1, 0, 0, 0
	Step 14, NOTE_B4, 0, NOTE_B2
	Step 1, NOTE_B4, 0, 0
	Step 15, NOTE_B4, 0, NOTE_B3
	Step 1, 0, 0, 0
	Step 14, NOTE_E4, 0, NOTE_B2
	Step 1, NOTE_E4, 0, 0
	Step 15, NOTE_E4, 0, NOTE_B3
	Step 1, 0, 0, 0
	Step 14, NOTE_A4, 0, NOTE_F2
	Step 1, NOTE_A4, 0, 0
	Step 15, NOTE_A4, 0, NOTE_F3
	Step 1, 0, 0, 0
	Step 14, NOTE_F4, 0, NOTE_F2
	Step 1, NOTE_F4, 0, 0
	Step 15, NOTE_F4, 0, NOTE_F3
	Step 1, 0, 0, 0
	Step 14, NOTE_A4, 0, NOTE_F2
	Step 1, NOTE_A4, 0, 0
	Step 15, NOTE_A4, 0, NOTE_F3
	Step 1, 0, 0, 0
	Step 14, NOTE_C5, 0, NOTE_F2
	Step 1, 0, 0, 0
	Step 7, NOTE_B4, 0, NOTE_F3
	Step 1, 0, 0, NOTE_F3
	Step 7, NOTE_A4, 0, NOTE_F3
	Step 1, 0, 0, 0
	Step 14, NOTE_B4, 0, NOTE_D2
	Step 1, NOTE_B4, 0, 0
	Step 15, NOTE_B4, 0, NOTE_D3
	Step 1, 0, 0, 0
	Step 14, NOTE_B4, 0, NOTE_D2
	Step 1, 0, 0, 0
	Step 7, NOTE_A4, 0, NOTE_D3
	Step 1, 0, 0, NOTE_D3
	Step 7, NOTE_Ab4, 0, NOTE_D3
	Step 1, 0, 0, 0
	Step 14, NOTE_A4, 0, NOTE_E2
	Step 1, NOTE_A4, 0, 0
	Step 15, NOTE_A4, 0, NOTE_E3
	Step 1, 0, 0, 0
	Step 14, NOTE_Ab4, 0, NOTE_E2
	Step 1, 0, 0, 0
	Step 15, NOTE_E4, 0, NOTE_E3
	Step 1, 0, 0, 0
	Step 14, NOTE_A4, 0, NOTE_A2
	Step 1, NOTE_A4, 0, 0
	Step 7, NOTE_A4, NOTE_A4, NOTE_A3
	Step 1, NOTE_A4, 0, NOTE_A3
	Step 7, NOTE_A4, NOTE_C5, NOTE_A3
	Step 1, NOTE_A4, 0, 0
	Step 14, NOTE_A4, 0, NOTE_A2
	Step 1, NOTE_A4, 0, 0
	Step 7, NOTE_A4, NOTE_C5, NOTE_A3
	Step 1, NOTE_A4, 0, NOTE_A3
	Step 7, NOTE_A4, NOTE_C5, NOTE_A3
	Step 1, NOTE_A4, 0, 0
	Step 14, NOTE_A4, 0, NOTE_A2
	Step 1, NOTE_A4, 0, 0
	Step 7, NOTE_A4, NOTE_C5, NOTE_A3
	Step 1, NOTE_A4, 0, NOTE_A3
	Step 7, NOTE_A4, NOTE_C5, NOTE_A3
	Step 1, NOTE_A4, 0, 0
	Step 14, NOTE_A4, 0, NOTE_A2
	Step 1, NOTE_A4, 0, 0
	Step 7, NOTE_A4, NOTE_B4, NOTE_A3
	Step 1, NOTE_A4, 0, NOTE_A3
	Step 7, NOTE_A4, NOTE_A4, NOTE_A3
	Step 1, 0, 0, 0
	Step 14, NOTE_A4, 0, NOTE_A2
	Step 1, NOTE_A4, 0, 0
	Step 7, NOTE_A4, NOTE_A4, NOTE_A3
	Step 1, NOTE_A4, 0, NOTE_A3
	Step 7, NOTE_A4, NOTE_A4, NOTE_A3
	Step 1, NOTE_A4, 0, 0
	Step 14, NOTE_A4, 0, NOTE_A2
	Step 1, NOTE_A4, 0, 0
	Step 7, NOTE_A4, NOTE_A4, NOTE_A3
	Step 1, NOTE_A4, 0, NOTE_A3
	Step 7, NOTE_A4, NOTE_A4, NOTE_A3
	Step 1, NOTE_A4, 0, 0
	Step 14, NOTE_A4, 0, NOTE_A2
	Step 1, NOTE_A4, 0, 0
	Step 7, NOTE_A4, NOTE_A4, NOTE_A3
	Step 1, NOTE_A4, 0, NOTE_A3
	Step 7, NOTE_A4, NOTE_A4, NOTE_A3
	Step 1, NOTE_A4, 0, 0
	Step 14, NOTE_A4, 0, NOTE_A2
	Step 1, NOTE_A4, 0, 0
	Step 7, NOTE_A4, NOTE_A4, NOTE_A3
	Step 1, NOTE_A4, 0, NOTE_A3
	Step 7, NOTE_A4, NOTE_E4, NOTE_A3
	Step 1, 0, 0, 0
	Step 14, NOTE_A4, 0, NOTE_A2
	Step 1, NOTE_A4, 0, 0
	Step 7, NOTE_A4, NOTE_E4, NOTE_A3
	Step 1, NOTE_A4, 0, NOTE_A3
	Step 7, NOTE_A4, NOTE_E4, NOTE_A3
	Step 1, NOTE_A4, 0, 0
	Step 14, NOTE_A4, 0, NOTE_A2
	Step 1, NOTE_A4, 0, 0
	Step 7, NOTE_A4, NOTE_E4, NOTE_A3
	Step 1, NOTE_A4, 0, NOTE_A3
	Step 7, NOTE_A4, NOTE_E4, NOTE_A3
	Step 1, NOTE_A4, 0, 0
	Step 14, NOTE_A4, 0, NOTE_A2
	Step 1, NOTE_A4, 0, 0
	Step 7, NOTE_A4, NOTE_E4, NOTE_A3
	Step 1, NOTE_A4, 0, NOTE_A3
	Step 7, NOTE_A4, NOTE_E4, NOTE_A3
	Step 1, NOTE_A4, 0, 0
	Step 14, NOTE_A4, 0, NOTE_A2
	Step 1, NOTE_A4, 0, 0
	Step 7, NOTE_A4, NOTE_D4, NOTE_A3
	Step 1, NOTE_A4, 0, NOTE_A3
	Step 7, NOTE_A4, NOTE_C4, NOTE_A3
	Step 1, 0, 0, 0
	Step 14, NOTE_A4, 0, NOTE_A2
	Step 1, NOTE_A4, 0, 0
	Step 7, NOTE_A4, NOTE_C4, NOTE_A3
	Step 1, NOTE_A4, 0, NOTE_A3
	Step 7, NOTE_A4, NOTE_C4, NOTE_A3
	Step 1, NOTE_A4, 0, 0
	Step 14, NOTE_A4, 0, NOTE_A2
	Step 1, NOTE_A4, 0, 0
	Step 7, NOTE_A4, NOTE_C4, NOTE_A3
	Step 1, NOTE_A4, 0, NOTE_A3
	Step 7, NOTE_A4, NOTE_C4, NOTE_A3
	Step 1, NOTE_A4, 0, 0
	Step 14, NOTE_A4, 0, NOTE_A2
	Step 1, NOTE_A4, 0, 0
	Step 7, NOTE_A4, NOTE_C4, NOTE_A3
	Step 1, NOTE_A4, 0, NOTE_A3
	Step 7, NOTE_A4, NOTE_C4, NOTE_A3
	Step 1, NOTE_A4, 0, 0
	Step 14, NOTE_A4, 0, NOTE_A2
	Step 1, NOTE_A4, 0, 0
	Step 7, NOTE_A4, NOTE_B3, NOTE_A3
	Step 1, NOTE_A4, 0, NOTE_A3
	Step 7, NOTE_A4, NOTE_A3, NOTE_A3
	Step 1, 0, 0, 0
	Step 14, 0, NOTE_A3, NOTE_A1
	Step 1, 0, 0, 0
	Step 15, 0, 0, NOTE_A2
	Step 1, 0, 0, 0
	Step 14, 0, NOTE_A3, NOTE_A1
	Step 1, 0, 0, 0
	Step 8, 0, 0, NOTE_A2
	Step 7, 0, NOTE_A3, NOTE_A2
	Step 1, 0, 0, 0
	Step 14, 0, NOTE_E4, NOTE_A2
	Step 1, 0, NOTE_E4, 0
	Step 15, 0, NOTE_E4, NOTE_A3
	Step 1, 0, 0, 0
	Step 14, 0, NOTE_E4, NOTE_A2
	Step 1, 0, NOTE_E4, 0
	Step 7, 0, NOTE_E4, NOTE_A3
	Step 1, 0, 0, NOTE_A3
	Step 3, 0, NOTE_C4, NOTE_A3
	Step 1, 0, 0, NOTE_A3
	Step 3, 0, NOTE_D4, NOTE_A3
	Step 1, 0, 0, 0
	Step 14, 0, NOTE_E4, NOTE_E2
	Step 1, 0, NOTE_E4, 0
	Step 15, 0, NOTE_E4, NOTE_E3
	Step 1, 0, NOTE_E4, 0
	Step 14, 0, NOTE_E4, NOTE_E2
	Step 1, 0, NOTE_E4, 0
	Step 15, 0, NOTE_E4, NOTE_E3
	Step 1, 0, 0, 0
	Step 14, 0, NOTE_D4, NOTE_E2
	Step 1, 0, NOTE_D4, 0
	Step 15, 0, NOTE_D4, NOTE_E3
	Step 1, 0, 0, 0
	Step 14, 0, NOTE_G4, NOTE_E2
	Step 1, 0, 0, 0
	Step 7, 0, NOTE_F4, NOTE_E3
	Step 1, 0, 0, NOTE_E3
	Step 7, 0, NOTE_Fb4, NOTE_E3
	Step 1, 0, 0, 0
	Step 14, 0, NOTE_E4, NOTE_A2
	Step 1, 0, NOTE_E4, 0
	Step 15, 0, NOTE_E4, NOTE_A3
	Step 1, 0, NOTE_E4, 0
	Step 14, 0, NOTE_E4, NOTE_A2
	Step 1, 0, NOTE_E4, 0
	Step 15, 0, NOTE_E4, NOTE_A3
	Step 1, 0, 0, 0
	Step 14, 0, NOTE_C4, NOTE_A2
	Step 1, 0, NOTE_C4, 0
	Step 15, 0, NOTE_C4, NOTE_A3
	Step 1, 0, 0, 0
	Step 14, 0, NOTE_C4, NOTE_A2
	Step 1, 0, 0, 0
	Step 7, 0, NOTE_B3, NOTE_A3
	Step 1, 0, 0, NOTE_A3
	Step 7, 0, NOTE_C4, NOTE_A3
	Step 1, 0, 0, 0
	Step 6, 0, NOTE_Eb4, NOTE_Eb1
	Step 1, 0, 0, NOTE_Eb1
	Step 7, 0, 0, NOTE_Eb1
	Step 1, 0, 0, 0
	Step 7, 0, NOTE_Eb4, NOTE_Eb2
	Step 1, 0, 0, NOTE_Eb2
	Step 7, 0, NOTE_Eb3, NOTE_Eb2
	Step 1, 0, 0, 0
	Step 7, 0, 0, NOTE_Eb1
	Step 7, 0, NOTE_Eb4, NOTE_Eb1
	Step 1, 0, 0, 0
	Step 7, 0, NOTE_Eb3, NOTE_Eb2
	Step 1, 0, 0, NOTE_Eb2
	Step 7, 0, 0, NOTE_Eb2
	Step 1, 0, 0, 0
	Step 6, 0, NOTE_C4, NOTE_Eb1
	Step 1, 0, 0, NOTE_Eb1
	Step 7, 0, NOTE_C4, NOTE_Eb1
	Step 1, 0, 0, 0
	Step 7, 0, NOTE_Cb4, NOTE_Eb2
	Step 1, 0, 0, NOTE_Eb2
	Step 7, 0, NOTE_C4, NOTE_Eb2
	Step 1, 0, 0, 0
	Step 6, 0, NOTE_Eb4, NOTE_Eb1
	Step 1, 0, 0, NOTE_Eb1
	Step 7, 0, NOTE_Eb4, NOTE_Eb1
	Step 1, 0, 0, 0
	Step 7, 0, NOTE_Cb4, NOTE_Eb2
	Step 1, 0, 0, NOTE_Eb2
	Step 7, 0, NOTE_C4, NOTE_Eb2
	Step 1, 0, 0, 0
	Step 14, 0, 0, NOTE_A2
	Step 1, 0, 0, 0
	Step 7, 0, NOTE_A3, NOTE_A3
	Step 1, 0, 0, NOTE_A3
	Step 7, 0, NOTE_A3, NOTE_A3
	Step 1, 0, 0, 0
	Step 6, 0, NOTE_A4, NOTE_A2
	Step 1, 0, 0, NOTE_A2
	Step 7, 0, 0, NOTE_A2
	Step 1, 0, 0, 0
	Step 7, 0, NOTE_A3, NOTE_A3
	Step 1, 0, 0, NOTE_A3
	Step 7, 0, NOTE_A3, NOTE_A3
	Step 1, 0, 0, 0
	Step 6, 0, NOTE_A4, NOTE_A2
	Step 1, 0, 0, NOTE_A2
	Step 7, 0, 0, NOTE_A2
	Step 1, 0, 0, 0
	Step 7, 0, NOTE_A3, NOTE_A3
	Step 1, 0, 0, NOTE_A3
	Step 7, 0, NOTE_A4, NOTE_A3
	Step 1, 0, 0, 0
	Step 14, 0, 0, NOTE_A2
	Step 1, 0, 0, 0
	Step 7, 0, NOTE_A4, NOTE_A3
	Step 1, 0, 0, NOTE_A3
	Step 3, 0, NOTE_A4, NOTE_A3
	Step 1, 0, 0, NOTE_A3
	Step 3, 0, NOTE_B4, NOTE_A3
	Step 1, 0, 0, 0
	Step 14, 0, NOTE_A4, NOTE_F2
	Step 1, 0, NOTE_A4, 0
	Step 15, 0, NOTE_A4, NOTE_F3
	Step 1, 0, 0, 0
	Step 14, 0, NOTE_A4, NOTE_F2
	Step 1, 0, NOTE_A4, 0
	Step 7, 0, NOTE_A4, NOTE_F3
	Step 1, 0, 0, NOTE_F3
	Step 3, 0, NOTE_A4, NOTE_F3
	Step 1, 0, 0, NOTE_F3
	Step 3, 0, NOTE_B4, NOTE_F3
	Step 1, 0, 0, 0
	Step 14, 0, NOTE_Ab4, NOTE_F2
	Step 1, 0, 0, 0
	Step 7, 0, NOTE_E4, NOTE_F3
	Step 1, 0, 0, NOTE_F3
	Step 7, 0, NOTE_A4, NOTE_F3
	Step 1, 0, NOTE_A4, 0
	Step 6, 0, NOTE_A4, NOTE_F2
	Step 1, 0, 0, NOTE_F2
	Step 7, 0, NOTE_E4, NOTE_F2
	Step 1, 0, 0, 0
	Step 7, 0, NOTE_B4, NOTE_F3
	Step 1, 0, 0, NOTE_F3
	Step 7, 0, NOTE_E4, NOTE_F3
	Step 1, 0, 0, 0
	Step 14, 0, NOTE_C5, NOTE_A2
	Step 1, 0, NOTE_C5, 0
	Step 15, 0, NOTE_C5, NOTE_A3
	Step 1, 0, 0, 0
	Step 14, 0, NOTE_A4, NOTE_A2
	Step 1, 0, NOTE_A4, 0
	Step 15, 0, NOTE_A4, NOTE_A3
	Step 1, 0, 0, 0
	Step 7, 0, 0, NOTE_A2
	Step 3, 0, NOTE_A4, NOTE_A2
	Step 1, 0, 0, NOTE_A2
	Step 3, 0, NOTE_C5, NOTE_A2
	Step 1, 0, 0, 0
	Step 15, 0, NOTE_A5, NOTE_A3
	Step 1, 0, 0, 0
	Step 14, 0, NOTE_E5, NOTE_A2
	Step 1, 0, NOTE_E5, 0
	Step 15, 0, NOTE_E5, NOTE_A3
	Step 1, 0, 0, 0
	Step 14, 0, NOTE_Eb5, NOTE_Eb2
	Step 1, 0, NOTE_Eb5, 0
	Step 15, 0, NOTE_Eb5, NOTE_Eb3
	Step 1, 0, 0, 0
	Step 14, 0, NOTE_Eb5, NOTE_Eb2
	Step 1, 0, NOTE_Eb5, 0
	Step 7, 0, NOTE_Eb5, NOTE_Eb3
	Step 1, 0, 0, NOTE_Eb3
	Step 3, 0, NOTE_Eb5, NOTE_Eb3
	Step 1, 0, 0, NOTE_Eb3
	Step 3, 0, NOTE_E5, NOTE_Eb3
	Step 1, 0, 0, 0
	Step 14, 0, NOTE_F5, NOTE_Eb2
	Step 1, 0, NOTE_F5, 0
	Step 15, 0, NOTE_F5, NOTE_Eb3
	Step 1, 0, 0, 0
	Step 14, 0, NOTE_F4, NOTE_Eb2
	Step 1, 0, 0, 0
	Step 3, 0, NOTE_F4, NOTE_Eb3
	Step 1, 0, 0, NOTE_Eb3
	Step 3, 0, NOTE_C5, NOTE_Eb3
	Step 1, 0, 0, NOTE_Eb3
	Step 3, 0, NOTE_B4, NOTE_Eb3
	Step 1, 0, 0, NOTE_Eb3
	Step 3, 0, NOTE_Bb4, NOTE_Eb3
	Step 1, 0, 0, 0
	Step 7, NOTE_A4, 0, NOTE_A2
	Step 7, NOTE_A4, NOTE_E4, NOTE_A2
	Step 1, 0, 0, 0
	Step 7, 0, NOTE_C5, NOTE_A3
	Step 1, 0, 0, NOTE_A3
	Step 7, 0, NOTE_E4, NOTE_A3
	Step 1, 0, 0, 0
	Step 14, 0, NOTE_Eb5, NOTE_A2
	Step 1, 0, 0, 0
	Step 15, 0, NOTE_D5, NOTE_A3
	Step 1, 0, 0, 0
	Step 6, NOTE_A4, NOTE_C5, NOTE_A2
	Step 1, NOTE_A4, 0, NOTE_A2
	Step 7, NOTE_A4, NOTE_D5, NOTE_A2
	Step 1, 0, 0, 0
	Step 7, NOTE_E4, NOTE_C5, NOTE_A3
	Step 1, NOTE_E4, 0, NOTE_A3
	Step 7, NOTE_E4, NOTE_A4, NOTE_A3
	Step 1, 0, 0, 0
	Step 7, NOTE_E5, 0, NOTE_A2
	Step 7, NOTE_E5, NOTE_G4, NOTE_A2
	Step 1, NOTE_E5, 0, 0
	Step 7, NOTE_E5, NOTE_A4, NOTE_A3
	Step 1, NOTE_E5, 0, NOTE_A3
	Step 7, NOTE_E5, NOTE_G4, NOTE_A3
	Step 1, 0, 0, 0
	Step 6, NOTE_G5, NOTE_A4, NOTE_C3
	Step 1, NOTE_G5, 0, NOTE_C3
	Step 7, NOTE_G5, NOTE_E4, NOTE_C3
	Step 1, NOTE_G5, 0, 0
	Step 7, NOTE_G5, NOTE_C5, NOTE_C4
	Step 1, NOTE_G5, 0, NOTE_C4
	Step 7, NOTE_G5, NOTE_E4, NOTE_C4
	Step 1, 0, 0, 0
	Step 14, NOTE_E5, NOTE_Eb5, NOTE_C3
	Step 1, NOTE_E5, 0, 0
	Step 15, NOTE_E5, NOTE_D5, NOTE_C4
	Step 1, 0, 0, 0
	Step 6, NOTE_A5, NOTE_C5, NOTE_D3
	Step 1, NOTE_A5, 0, NOTE_D3
	Step 7, NOTE_A5, NOTE_D5, NOTE_D3
	Step 1, NOTE_A5, 0, 0
	Step 7, NOTE_A5, NOTE_C5, NOTE_D4
	Step 1, NOTE_A5, 0, NOTE_D4
	Step 7, NOTE_A5, NOTE_A4, NOTE_D4
	Step 1, 0, 0, 0
	Step 7, NOTE_E5, 0, NOTE_D3
	Step 7, NOTE_E5, NOTE_C5, NOTE_D3
	Step 1, NOTE_E5, 0, 0
	Step 7, NOTE_E5, NOTE_D5, NOTE_D4
	Step 1, NOTE_E5, 0, NOTE_D4
	Step 7, NOTE_E5, NOTE_E5, NOTE_D4
	Step 1, 0, 0, 0
	Step 6, NOTE_Eb5, NOTE_A4, NOTE_A2
	Step 1, NOTE_Eb5, 0, NOTE_A2
	Step 7, NOTE_Eb5, NOTE_E4, NOTE_A2
	Step 1, NOTE_Eb5, 0, 0
	Step 7, NOTE_Eb5, NOTE_C5, NOTE_A3
	Step 1, NOTE_Eb5, 0, NOTE_A3
	Step 7, NOTE_Eb5, NOTE_E4, NOTE_A3
	Step 1, NOTE_Eb5, 0, 0
	Step 14, NOTE_Eb5, NOTE_Eb5, NOTE_A2
	Step 1, NOTE_Eb5, 0, 0
	Step 15, NOTE_Eb5, NOTE_D5, NOTE_A3
	Step 1, 0, 0, 0
	Step 6, NOTE_Eb5, NOTE_C5, NOTE_A2
	Step 1, NOTE_Eb5, 0, NOTE_A2
	Step 7, NOTE_Eb5, NOTE_D5, NOTE_A2
	Step 1, 0, 0, 0
	Step 7, NOTE_A4, NOTE_C5, NOTE_A3
	Step 1, NOTE_A4, 0, NOTE_A3
	Step 7, NOTE_A4, NOTE_A4, NOTE_A3
	Step 1, 0, 0, 0
	Step 7, NOTE_E5, 0, NOTE_A2
	Step 7, NOTE_E5, NOTE_G4, NOTE_A2
	Step 1, NOTE_E5, 0, 0
	Step 7, NOTE_E5, NOTE_A4, NOTE_A3
	Step 1, NOTE_E5, 0, NOTE_A3
	Step 7, NOTE_E5, NOTE_G4, NOTE_A3
	Step 1, 0, 0, 0
	Step 6, NOTE_Eb5, NOTE_Ab4, NOTE_E2
	Step 1, NOTE_Eb5, 0, NOTE_E2
	Step 7, NOTE_Eb5, NOTE_E4, NOTE_E2
	Step 1, NOTE_Eb5, 0, 0
	Step 7, NOTE_Eb5, NOTE_B4, NOTE_E3
	Step 1, NOTE_Eb5, 0, NOTE_E3
	Step 7, NOTE_Eb5, NOTE_E4, NOTE_E3
	Step 1, 0, 0, 0
	Step 14, NOTE_C5, 0, NOTE_E2
	Step 1, 0, 0, 0
	Step 15, NOTE_B4, 0, NOTE_E3
	Step 1, 0, 0, 0
	Step 14, NOTE_C5, NOTE_Ab4, NOTE_D2
	Step 1, NOTE_C5, 0, 0
	Step 15, NOTE_C5, NOTE_B4, NOTE_D3
	Step 1, 0, 0, 0
	Step 6, NOTE_B4, NOTE_E5, NOTE_D2
	Step 1, NOTE_B4, 0, NOTE_D2
	Step 7, NOTE_B4, NOTE_B4, NOTE_D2
	Step 1, NOTE_B4, 0, 0
	Step 7, NOTE_B4, NOTE_Ab4, NOTE_D3
	Step 1, NOTE_B4, 0, NOTE_D3
	Step 7, NOTE_B4, NOTE_B4, NOTE_D3
	Step 1, 0, 0, 0
	Step 6, NOTE_A4, NOTE_E5, NOTE_C2
	Step 1, NOTE_A4, 0, NOTE_C2
	Step 7, NOTE_A4, NOTE_C5, NOTE_C2
	Step 1, NOTE_A4, 0, 0
	Step 7, NOTE_A4, NOTE_G5, NOTE_C3
	Step 1, NOTE_A4, 0, NOTE_C3
	Step 7, NOTE_A4, NOTE_E5, NOTE_C3
	Step 1, 0, 0, 0
	Step 6, NOTE_B4, NOTE_B5, NOTE_C2
	Step 1, NOTE_B4, 0, NOTE_C2
	Step 7, NOTE_B4, NOTE_E5, NOTE_C2
	Step 1, NOTE_B4, 0, 0
	Step 7, NOTE_B4, NOTE_G5, NOTE_C3
	Step 1, NOTE_B4, 0, NOTE_C3
	Step 7, NOTE_B4, NOTE_E5, NOTE_C3
	Step 1, 0, 0, 0
	Step 6, NOTE_A4, NOTE_Eb5, NOTE_B1
	Step 1, NOTE_A4, 0, NOTE_B1
	Step 7, NOTE_A4, NOTE_B4, NOTE_B1
	Step 1, 0, 0, 0
	Step 7, NOTE_B4, NOTE_Gb5, NOTE_B2
	Step 1, NOTE_B4, 0, NOTE_B2
	Step 7, NOTE_B4, NOTE_Eb5, NOTE_B2
	Step 1, 0, 0, 0
	Step 6, NOTE_A4, NOTE_A5, NOTE_B1
	Step 1, NOTE_A4, 0, NOTE_B1
	Step 7, NOTE_A4, NOTE_Gb5, NOTE_B1
	Step 1, 0, 0, 0
	Step 8, NOTE_E4, 0, NOTE_B2
	Step 7, NOTE_E4, NOTE_B4, NOTE_B2
	Step 1, 0, 0, 0
	Step 6, NOTE_F4, NOTE_C5, NOTE_F1
	Step 1, NOTE_F4, 0, NOTE_F1
	Step 7, NOTE_F4, NOTE_A4, NOTE_F1
	Step 1, NOTE_F4, 0, 0
	Step 7, NOTE_F4, NOTE_C5, NOTE_F2
	Step 1, NOTE_F4, 0, NOTE_F2
	Step 7, NOTE_F4, NOTE_E5, NOTE_F2
	Step 1, NOTE_F4, 0, 0
	Step 6, NOTE_F4, NOTE_C5, NOTE_F1
	Step 1, NOTE_F4, 0, NOTE_F1
	Step 7, NOTE_F4, NOTE_F4, NOTE_F1
	Step 1, NOTE_F4, 0, 0
	Step 7, NOTE_F4, NOTE_B4, NOTE_F2
	Step 1, NOTE_F4, 0, NOTE_F2
	Step 7, NOTE_F4, NOTE_A4, NOTE_F2
	Step 1, NOTE_F4, 0, 0
	Step 6, NOTE_F4, NOTE_C5, NOTE_F1
	Step 1, NOTE_F4, 0, NOTE_F1
	Step 7, NOTE_F4, NOTE_A4, NOTE_F1
	Step 1, NOTE_F4, 0, 0
	Step 7, NOTE_F4, NOTE_C5, NOTE_F2
	Step 1, NOTE_F4, 0, NOTE_F2
	Step 7, NOTE_F4, NOTE_E5, NOTE_F2
	Step 1, 0, 0, 0
	Step 6, NOTE_G4, NOTE_C5, NOTE_F1
	Step 1, NOTE_G4, 0, NOTE_F1
	Step 7, NOTE_G4, NOTE_F4, NOTE_F1
	Step 1, NOTE_G4, 0, 0
	Step 7, NOTE_G4, NOTE_B4, NOTE_F2
	Step 1, NOTE_G4, 0, NOTE_F2
	Step 7, NOTE_G4, NOTE_A4, NOTE_F2
	Step 1, 0, 0, 0
	Step 7, NOTE_A4, 0, NOTE_A1
	Step 7, NOTE_A4, NOTE_E4, NOTE_A1
	Step 1, 0, 0, 0
	Step 7, NOTE_E4, NOTE_A4, NOTE_A2
	Step 1, NOTE_E4, 0, NOTE_A2
	Step 7, NOTE_E4, NOTE_C5, NOTE_A2
	Step 1, 0, 0, 0
	Step 6, NOTE_A5, NOTE_A4, NOTE_A1
	Step 1, NOTE_A5, 0, NOTE_A1
	Step 7, NOTE_A5, NOTE_E4, NOTE_A1
	Step 1, 0, 0, 0
	Step 7, NOTE_E5, NOTE_A4, NOTE_A2
	Step 1, NOTE_E5, 0, NOTE_A2
	Step 7, NOTE_E5, NOTE_E4, NOTE_A2
	Step 1, 0, 0, 0
	Step 7, NOTE_Eb5, 0, NOTE_Eb2
	Step 7, NOTE_Eb5, NOTE_C5, NOTE_Eb2
	Step 1, NOTE_Eb5, 0, 0
	Step 7, NOTE_Eb5, NOTE_A4, NOTE_Eb3
	Step 1, NOTE_Eb5, 0, NOTE_Eb3
	Step 7, NOTE_Eb5, NOTE_E4, NOTE_Eb3
	Step 1, 0, 0, 0
	Step 6, NOTE_Eb5, NOTE_A4, NOTE_Eb2
	Step 1, NOTE_Eb5, 0, NOTE_Eb2
	Step 7, NOTE_Eb5, NOTE_E4, NOTE_Eb2
	Step 1, 0, 0, 0
	Step 8, NOTE_A4, 0, NOTE_Eb3
	Step 7, NOTE_A4, NOTE_Eb5, NOTE_Eb3
	Step 1, 0, 0, 0
	Step 6, NOTE_A4, NOTE_C5, NOTE_Eb2
	Step 1, NOTE_A4, 0, NOTE_Eb2
	Step 7, NOTE_A4, NOTE_A4, NOTE_Eb2
	Step 1, NOTE_A4, 0, 0
	Step 7, NOTE_A4, NOTE_E4, NOTE_Eb3
	Step 1, NOTE_A4, 0, NOTE_Eb3
	Step 7, NOTE_A4, NOTE_C4, NOTE_Eb3
	Step 1, NOTE_A4, 0, 0
	Step 6, NOTE_A4, NOTE_E4, NOTE_Eb2
	Step 1, NOTE_A4, 0, NOTE_Eb2
	Step 7, NOTE_A4, NOTE_C4, NOTE_Eb2
	Step 1, NOTE_A4, 0, 0
	Step 7, NOTE_A4, NOTE_E4, NOTE_Eb3
	Step 1, NOTE_A4, 0, NOTE_Eb3
	Step 7, NOTE_A4, NOTE_A4, NOTE_Eb3
	Step 1, 0, 0, 0
	Step 7, NOTE_A4, 0, NOTE_A1
	Step 7, NOTE_A4, NOTE_E4, NOTE_A1
	Step 1, 0, 0, 0
	Step 7, NOTE_E4, NOTE_A4, NOTE_A2
	Step 1, NOTE_E4, 0, NOTE_A2
	Step 7, NOTE_E4, NOTE_C5, NOTE_A2
	Step 1, 0, 0, 0
	Step 6, NOTE_E5, NOTE_A4, NOTE_A1
	Step 1, NOTE_E5, 0, NOTE_A1
	Step 7, NOTE_E5, NOTE_E4, NOTE_A1
	Step 1, 0, 0, 0
	Step 8, NOTE_C5, 0, NOTE_A2
	Step 7, NOTE_C5, NOTE_E5, NOTE_A2
	Step 1, 0, 0, 0
	Step 6, NOTE_D5, NOTE_A4, NOTE_C2
	Step 1, NOTE_D5, 0, NOTE_C2
	Step 7, NOTE_D5, NOTE_E4, NOTE_C2
	Step 1, NOTE_D5, 0, 0
	Step 7, NOTE_D5, NOTE_A4, NOTE_C3
	Step 1, NOTE_D5, 0, NOTE_C3
	Step 7, NOTE_D5, NOTE_D5, NOTE_C3
	Step 1, 0, 0, 0
	Step 6, NOTE_D5, NOTE_A4, NOTE_C2
	Step 1, NOTE_D5, 0, NOTE_C2
	Step 7, NOTE_D5, NOTE_E4, NOTE_C2
	Step 1, 0, 0, 0
	Step 7, NOTE_C5, NOTE_A4, NOTE_C3
	Step 1, NOTE_C5, 0, NOTE_C3
	Step 7, NOTE_C5, NOTE_E5, NOTE_C3
	Step 1, NOTE_C5, 0, 0
	Step 6, NOTE_C5, NOTE_A4, NOTE_C2
	Step 1, NOTE_C5, 0, NOTE_C2
	Step 7, NOTE_C5, NOTE_E4, NOTE_C2
	Step 1, 0, 0, 0
	Step 7, NOTE_C5, NOTE_A4, NOTE_C3
	Step 1, NOTE_C5, 0, NOTE_C3
	Step 7, NOTE_C5, NOTE_E4, NOTE_C3
	Step 1, 0, 0, 0
	Step 6, NOTE_D5, NOTE_A4, NOTE_C2
	Step 1, NOTE_D5, 0, NOTE_C2
	Step 7, NOTE_D5, NOTE_E4, NOTE_C2
	Step 1, NOTE_D5, 0, 0
	Step 7, NOTE_D5, NOTE_A4, NOTE_C3
	Step 1, NOTE_D5, 0, NOTE_C3
	Step 7, NOTE_D5, NOTE_E5, NOTE_C3
	Step 1, 0, 0, 0
	Step 7, NOTE_A4, 0, NOTE_A1
	Step 7, NOTE_A4, NOTE_E4, NOTE_A1
	Step 1, 0, 0, 0
	Step 7, NOTE_E4, NOTE_A4, NOTE_A2
	Step 1, NOTE_E4, 0, NOTE_A2
	Step 7, NOTE_E4, NOTE_C5, NOTE_A2
	Step 1, 0, 0, 0
	Step 6, NOTE_A5, NOTE_A4, NOTE_A1
	Step 1, NOTE_A5, 0, NOTE_A1
	Step 7, NOTE_A5, NOTE_E4, NOTE_A1
	Step 1, 0, 0, 0
	Step 7, NOTE_E5, NOTE_A4, NOTE_A2
	Step 1, NOTE_E5, 0, NOTE_A2
	Step 7, NOTE_E5, NOTE_E4, NOTE_A2
	Step 1, 0, 0, 0
	Step 7, NOTE_Eb5, 0, NOTE_Eb2
	Step 7, NOTE_Eb5, NOTE_C5, NOTE_Eb2
	Step 1, NOTE_Eb5, 0, 0
	Step 7, NOTE_Eb5, NOTE_A4, NOTE_Eb3
	Step 1, NOTE_Eb5, 0, NOTE_Eb3
	Step 7, NOTE_Eb5, NOTE_E4, NOTE_Eb3
	Step 1, 0, 0, 0
	Step 6, NOTE_Eb5, NOTE_A4, NOTE_Eb2
	Step 1, NOTE_Eb5, 0, NOTE_Eb2
	Step 7, NOTE_Eb5, NOTE_E4, NOTE_Eb2
	Step 1, 0, 0, 0
	Step 8, NOTE_A4, 0, NOTE_Eb3
	Step 7, NOTE_A4, NOTE_Eb5, NOTE_Eb3
	Step 1, 0, 0, 0
	Step 6, NOTE_A4, NOTE_A5, NOTE_Eb2
	Step 1, NOTE_A4, 0, NOTE_Eb2
	Step 7, NOTE_A4, NOTE_E5, NOTE_Eb2
	Step 1, NOTE_A4, 0, 0
	Step 7, NOTE_A4, NOTE_C5, NOTE_Eb3
	Step 1, NOTE_A4, 0, NOTE_Eb3
	Step 7, NOTE_A4, NOTE_A4, NOTE_Eb3
	Step 1, 0, 0, 0
	Step 6, NOTE_Eb5, NOTE_C5, NOTE_Eb2
	Step 1, NOTE_Eb5, 0, NOTE_Eb2
	Step 7, NOTE_Eb5, NOTE_A4, NOTE_Eb2
	Step 1, NOTE_Eb5, 0, 0
	Step 7, NOTE_Eb5, NOTE_C5, NOTE_Eb3
	Step 1, NOTE_Eb5, 0, NOTE_Eb3
	Step 7, NOTE_Eb5, NOTE_E4, NOTE_Eb3
	Step 1, 0, 0, 0
	Step 7, NOTE_E5, 0, NOTE_E2
	Step 7, NOTE_E5, NOTE_A4, NOTE_E2
	Step 1, NOTE_E5, 0, 0
	Step 7, NOTE_E5, NOTE_C5, NOTE_E3
	Step 1, NOTE_E5, 0, NOTE_E3
	Step 7, NOTE_E5, NOTE_E5, NOTE_E3
	Step 1, 0, 0, 0
	Step 7, NOTE_Ab5, 0, NOTE_E2
	Step 7, NOTE_Ab5, NOTE_E4, NOTE_E2
	Step 1, 0, 0, 0
	Step 7, NOTE_E5, NOTE_A4, NOTE_E3
	Step 1, NOTE_E5, 0, NOTE_E3
	Step 7, NOTE_E5, NOTE_C5, NOTE_E3
	Step 1, 0, 0, 0
	Step 7, NOTE_A5, 0, NOTE_A1
	Step 7, NOTE_A5, NOTE_E5, NOTE_A1
	Step 1, NOTE_A5, 0, 0
	Step 7, NOTE_A5, NOTE_C5, NOTE_A2
	Step 1, NOTE_A5, 0, NOTE_A2
	Step 7, NOTE_A5, NOTE_E5, NOTE_A2
	Step 1, NOTE_A5, 0, 0
	Step 6, NOTE_A5, NOTE_F5, NOTE_A1
	Step 1, NOTE_A5, 0, NOTE_A1
	Step 7, NOTE_A5, 0, NOTE_A1
	Step 1, NOTE_A5, 0, 0
	Step 7, NOTE_A5, NOTE_E5, NOTE_A2
	Step 1, NOTE_A5, 0, NOTE_A2
	Step 7, NOTE_A5, NOTE_D5, NOTE_A2
	Step 1, NOTE_A5, 0, 0
	Step 6, NOTE_A5, NOTE_C5, NOTE_A1
	Step 1, NOTE_A5, 0, NOTE_A1
	Step 7, NOTE_A5, NOTE_A4, NOTE_A1
	Step 1, NOTE_A5, 0, 0
	Step 7, NOTE_A5, NOTE_C5, NOTE_A2
	Step 1, NOTE_A5, 0, NOTE_A2
	Step 7, NOTE_A5, NOTE_D5, NOTE_A2
	Step 1, NOTE_A5, 0, 0
	Step 6, NOTE_A5, NOTE_Eb5, NOTE_A1
	Step 1, NOTE_A5, 0, NOTE_A1
	Step 7, NOTE_A5, NOTE_D5, NOTE_A1
	Step 1, NOTE_A5, 0, 0
	Step 7, NOTE_A5, NOTE_C5, NOTE_A2
	Step 1, NOTE_A5, 0, NOTE_A2
	Step 7, NOTE_A5, NOTE_A4, NOTE_A2
	Step 1, 0, 0, 0
	Step 6, 0, 0, NOTE_A2
	Step 1, 0, 0, 0
	Step 7, 0, 0, NOTE_A2
	Step 1, 0, 0, 0
	Step 7, NOTE_A4, NOTE_E4, NOTE_A3
	Step 1, 0, 0, 0
	Step 7, NOTE_A4, NOTE_E4, 0
	Step 1, 0, 0, 0
	Step 6, 0, 0, NOTE_A2
	Step 1, 0, 0, 0
	Step 8, 0, 0, 0
	Step 7, NOTE_A4, NOTE_E4, NOTE_A3
	Step 1, 0, 0, 0
	Step 7, NOTE_A4, NOTE_E4, 0
	Step 1, 0, 0, 0
	Step 6, 0, 0, NOTE_A2
	Step 1, 0, 0, 0
	Step 8, 0, 0, 0
	Step 7, NOTE_A4, NOTE_E4, NOTE_A3
	Step 1, 0, 0, 0
	Step 7, NOTE_A4, NOTE_E4, 0
	Step 1, 0, 0, 0
	Step 6, 0, 0, NOTE_A2
	Step 1, 0, 0, 0
	Step 8, 0, 0, 0
	Step 7, NOTE_A4, NOTE_E4, NOTE_A3
	Step 1, 0, 0, 0
	Step 7, NOTE_A4, NOTE_E4, 0
	Step 1, 0, 0, 0
	Step 6, 0, 0, NOTE_A2
	Step 1, 0, 0, 0
	Step 7, 0, 0, NOTE_A2
	Step 1, 0, 0, 0
	Step 7, NOTE_C5, NOTE_E4, NOTE_A3
	Step 1, 0, 0, 0
	Step 7, NOTE_C5, NOTE_E4, 0
	Step 1, 0, 0, 0
	Step 6, 0, 0, NOTE_A2
	Step 1, 0, 0, 0
	Step 8, 0, 0, 0
	Step 7, NOTE_C5, NOTE_E4, NOTE_A3
	Step 1, 0, 0, 0
	Step 7, NOTE_C5, NOTE_E4, 0
	Step 1, 0, 0, 0
	Step 6, 0, 0, NOTE_A2
	Step 1, 0, 0, 0
	Step 8, 0, 0, 0
	Step 7, NOTE_B4, NOTE_E4, NOTE_A3
	Step 1, 0, 0, 0
	Step 7, NOTE_B4, NOTE_E4, 0
	Step 1, 0, 0, 0
	Step 6, 0, 0, NOTE_A2
	Step 1, 0, 0, 0
	Step 8, 0, 0, 0
	Step 7, NOTE_B4, NOTE_E4, NOTE_A3
	Step 1, 0, 0, 0
	Step 7, NOTE_B4, NOTE_E4, 0
	Step 1, 0, 0, 0
	Step 6, 0, 0, NOTE_A2
	Step 1, 0, 0, 0
	Step 7, 0, 0, NOTE_A2
	Step 1, 0, 0, 0
	Step 7, NOTE_A4, NOTE_E4, NOTE_A3
	Step 1, 0, 0, 0
	Step 7, NOTE_A4, NOTE_E4, 0
	Step 1, 0, 0, 0
	Step 6, 0, 0, NOTE_A2
	Step 1, 0, 0, 0
	Step 8, 0, 0, 0
	Step 7, NOTE_A4, NOTE_E4, NOTE_A3
	Step 1, 0, 0, 0
	Step 7, NOTE_A4, NOTE_E4, 0
	Step 1, 0, 0, 0
	Step 6, 0, 0, NOTE_A2
	Step 1, 0, 0, 0
	Step 8, 0, 0, 0
	Step 7, NOTE_A4, NOTE_E4, NOTE_A3
	Step 1, 0, 0, 0
	Step 7, NOTE_A4, NOTE_E4, 0
	Step 1, 0, 0, 0
	Step 6, 0, 0, NOTE_A2
	Step 1, 0, 0, 0
	Step 8, 0, 0, 0
	Step 7, NOTE_A4, NOTE_E4, NOTE_A3
	Step 1, 0, 0, 0
	Step 7, NOTE_A4, NOTE_E4, 0
	Step 1, 0, 0, 0
	Step 6, 0, 0, NOTE_Ab2
	Step 1, 0, 0, 0
	Step 7, 0, 0, NOTE_Ab2
	Step 1, 0, 0, 0
	Step 7, NOTE_Ab4, NOTE_E4, NOTE_Ab3
	Step 1, 0, 0, 0
	Step 7, NOTE_Ab4, NOTE_E4, 0
	Step 1, 0, 0, 0
	Step 6, 0, 0, NOTE_Ab2
	Step 1, 0, 0, 0
	Step 8, 0, 0, 0
	Step 7, NOTE_Ab4, NOTE_E4, NOTE_Ab3
	Step 1, 0, 0, 0
	Step 7, NOTE_Ab4, NOTE_E4, 0
	Step 1, 0, 0, 0
	Step 6, 0, 0, NOTE_Ab2
	Step 1, 0, 0, 0
	Step 8, 0, 0, 0
	Step 7, NOTE_Ab4, NOTE_E4, NOTE_Ab3
	Step 1, 0, 0, 0
	Step 7, 0, NOTE_E4, 0
	Step 1, 0, 0, 0
	Step 6, 0, 0, NOTE_Ab2
	Step 1, 0, 0, 0
	Step 8, 0, 0, 0
	Step 7, NOTE_Ab4, NOTE_E4, NOTE_Ab3
	Step 1, 0, 0, 0
	Step 7, 0, NOTE_E4, 0
	Step 1, 0, 0, 0
	Step 14, 0, 0, NOTE_A2
	Step 1, 0, 0, 0
	Step 8, 0, 0, NOTE_A3
	Step 7, NOTE_A3, 0, NOTE_A3
	Step 1, 0, 0, 0
	Step 14, NOTE_E4, 0, NOTE_A2
	Step 1, NOTE_E4, 0, 0
	Step 15, NOTE_E4, 0, NOTE_A3
	Step 1, NOTE_E4, 0, 0
	Step 14, NOTE_E4, 0, NOTE_A2
	Step 1, NOTE_E4, 0, 0
	Step 15, NOTE_E4, 0, NOTE_A3
	Step 1, 0, 0, 0
	Step 14, NOTE_E4, 0, NOTE_A2
	Step 1, 0, 0, 0
	Step 7, NOTE_C4, 0, NOTE_A3
	Step 1, 0, 0, NOTE_A3
	Step 7, NOTE_D4, 0, NOTE_A3
	Step 1, 0, 0, 0
	Step 6, NOTE_E4, 0, NOTE_G2
	Step 1, 0, 0, NOTE_G2
	Step 7, 0, 0, NOTE_G2
	Step 1, 0, 0, 0
	Step 7, NOTE_F4, 0, NOTE_G3
	Step 1, 0, 0, NOTE_G3
	Step 7, 0, 0, NOTE_G3
	Step 1, 0, 0, 0
	Step 6, NOTE_E4, 0, NOTE_G2
	Step 1, 0, 0, NOTE_G2
	Step 7, NOTE_F4, 0, NOTE_G2
	Step 1, 0, 0, 0
	Step 7, NOTE_E4, 0, NOTE_G3
	Step 1, 0, 0, NOTE_G3
	Step 7, NOTE_C4, 0, NOTE_G3
	Step 1, 0, 0, 0
	Step 6, NOTE_E4, 0, NOTE_G2
	Step 1, 0, 0, NOTE_G2
	Step 7, 0, 0, NOTE_G2
	Step 1, 0, 0, 0
	Step 7, NOTE_F4, 0, NOTE_G3
	Step 1, 0, 0, NOTE_G3
	Step 7, 0, 0, NOTE_G3
	Step 1, 0, 0, 0
	Step 6, NOTE_E4, 0, NOTE_G2
	Step 1, 0, 0, NOTE_G2
	Step 7, NOTE_C4, 0, NOTE_G2
	Step 1, NOTE_C4, 0, 0
	Step 15, NOTE_C4, 0, NOTE_G3
	Step 1, 0, 0, 0
	Step 14, NOTE_D4, 0, NOTE_F2
	Step 1, NOTE_D4, 0, 0
	Step 15, NOTE_D4, 0, NOTE_F3
	Step 1, NOTE_D4, 0, 0
	Step 14, NOTE_D4, 0, NOTE_F2
	Step 1, NOTE_D4, 0, 0
	Step 15, NOTE_D4, 0, NOTE_F3
	Step 1, 0, 0, 0
	Step 14, NOTE_C4, 0, NOTE_F2
	Step 1, NOTE_C4, 0, 0
	Step 15, NOTE_C4, 0, NOTE_F3
	Step 1, 0, 0, 0
	Step 14, NOTE_A3, 0, NOTE_F2
	Step 1, 0, 0, 0
	Step 15, NOTE_C4, 0, NOTE_F3
	Step 1, 0, 0, 0
	Step 14, NOTE_B3, 0, NOTE_E2
	Step 1, NOTE_B3, 0, 0
	Step 15, NOTE_B3, 0, NOTE_E3
	Step 1, 0, 0, 0
	Step 14, NOTE_B3, 0, NOTE_E2
	Step 1, 0, 0, 0
	Step 7, NOTE_A3, 0, NOTE_E3
	Step 1, 0, 0, NOTE_E3
	Step 7, NOTE_Ab3, 0, NOTE_E3
	Step 1, 0, 0, 0
	Step 14, NOTE_A3, 0, NOTE_E2
	Step 1, NOTE_A3, 0, 0
	Step 15, NOTE_A3, 0, NOTE_E3
	Step 1, 0, 0, 0
	Step 14, NOTE_Ab3, 0, NOTE_E2
	Step 1, 0, 0, 0
	Step 15, NOTE_E3, 0, NOTE_E3
	Step 1, 0, 0, 0
	Step 14, NOTE_A3, 0, NOTE_A2
	Step 1, 0, 0, 0
	Step 8, 0, 0, NOTE_A3
	Step 7, NOTE_A3, 0, NOTE_A3
	Step 1, 0, 0, 0
	Step 14, NOTE_E4, 0, NOTE_A2
	Step 1, NOTE_E4, 0, 0
	Step 15, NOTE_E4, 0, NOTE_A3
	Step 1, NOTE_E4, 0, 0
	Step 14, NOTE_E4, 0, NOTE_A2
	Step 1, NOTE_E4, 0, 0
	Step 15, NOTE_E4, 0, NOTE_A3
	Step 1, 0, 0, 0
	Step 14, NOTE_E4, 0, NOTE_A2
	Step 1, 0, 0, 0
	Step 7, NOTE_C4, 0, NOTE_A3
	Step 1, 0, 0, NOTE_A3
	Step 7, NOTE_D4, 0, NOTE_A3
	Step 1, 0, 0, 0
	Step 14, NOTE_E4, 0, NOTE_G2
	Step 1, 0, 0, 0
	Step 7, NOTE_D4, 0, NOTE_G3
	Step 1, 0, 0, NOTE_G3
	Step 7, NOTE_E4, 0, NOTE_G3
	Step 1, 0, 0, 0
	Step 14, NOTE_F4, 0, NOTE_G2
	Step 1, 0, 0, 0
	Step 7, NOTE_E4, NOTE_A3, NOTE_G3
	Step 1, 0, NOTE_A3, NOTE_G3
	Step 7, NOTE_F4, NOTE_A3, NOTE_G3
	Step 1, 0, 0, 0
	Step 14, NOTE_G4, NOTE_E4, NOTE_G2
	Step 1, 0, NOTE_E4, 0
	Step 7, NOTE_F4, NOTE_E4, NOTE_G3
	Step 1, 0, NOTE_E4, NOTE_G3
	Step 7, NOTE_G4, NOTE_E4, NOTE_G3
	Step 1, 0, 0, 0
	Step 14, NOTE_C5, NOTE_F4, NOTE_G2
	Step 1, 0, NOTE_F4, 0
	Step 15, NOTE_B4, NOTE_F4, NOTE_G3
	Step 1, 0, 0, 0
	Step 14, NOTE_A4, 0, NOTE_F2
	Step 1, NOTE_A4, 0, 0
	Step 15, NOTE_A4, 0, NOTE_F3
	Step 1, NOTE_A4, 0, 0
	Step 14, NOTE_A4, 0, NOTE_F2
	Step 1, NOTE_A4, 0, 0
	Step 15, NOTE_A4, NOTE_C4, NOTE_F3
	Step 1, 0, NOTE_C4, 0
	Step 14, NOTE_F4, NOTE_C4, NOTE_F2
	Step 1, NOTE_F4, NOTE_C4, 0
	Step 15, NOTE_F4, NOTE_C4, NOTE_F3
	Step 1, 0, NOTE_C4, 0
	Step 6, NOTE_F4, NOTE_C4, NOTE_F2
	Step 1, 0, NOTE_C4, NOTE_F2
	Step 7, NOTE_C4, NOTE_C4, NOTE_F2
	Step 1, 0, 0, 0
	Step 15, NOTE_A4, NOTE_A3, NOTE_F3
	Step 1, 0, NOTE_A3, 0
	Step 14, NOTE_Ab4, NOTE_A3, NOTE_E2
	Step 1, NOTE_Ab4, NOTE_A3, 0
	Step 15, NOTE_Ab4, NOTE_A3, NOTE_E3
	Step 1, 0, NOTE_A3, 0
	Step 6, NOTE_Ab4, NOTE_A3, NOTE_E2
	Step 1, 0, NOTE_A3, NOTE_E2
	Step 7, NOTE_E4, NOTE_A3, NOTE_E2
	Step 1, 0, 0, 0
	Step 7, NOTE_Ab4, NOTE_C4, NOTE_E3
	Step 1, 0, NOTE_C4, NOTE_E3
	Step 7, NOTE_A4, NOTE_C4, NOTE_E3
	Step 1, 0, NOTE_C4, 0
	Step 14, NOTE_B4, NOTE_C4, NOTE_E2
	Step 1, NOTE_B4, 0, 0
	Step 15, NOTE_B4, NOTE_C4, NOTE_E3
	Step 1, 0, 0, 0
	Step 6, NOTE_D5, NOTE_B3, NOTE_E2
	Step 1, NOTE_D5, 0, NOTE_E2
	Step 7, NOTE_D5, NOTE_A3, NOTE_E2
	Step 1, NOTE_D5, 0, 0
	Step 15, NOTE_D5, NOTE_B3, NOTE_E3
	Step 1, 0, NOTE_B3, 0
	Step 14, NOTE_E5, NOTE_B3, NOTE_C2
	Step 1, NOTE_E5, 0, 0
	Step 15, NOTE_E5, NOTE_D4, NOTE_C3
	Step 1, NOTE_E5, NOTE_D4, 0
	Step 14, NOTE_E5, NOTE_D4, NOTE_C2
	Step 1, NOTE_E5, 0, 0
	Step 15, NOTE_E5, NOTE_A4, NOTE_C3
	Step 1, 0, NOTE_A4, 0
	Step 14, NOTE_G5, NOTE_A4, NOTE_C2
	Step 1, NOTE_G5, NOTE_A4, 0
	Step 15, NOTE_G5, NOTE_A4, NOTE_C3
	Step 1, 0, NOTE_A4, 0
	Step 14, NOTE_E5, NOTE_A4, NOTE_C2
	Step 1, 0, 0, 0
	Step 15, NOTE_G5, NOTE_B4, NOTE_C3
	Step 1, 0, NOTE_B4, 0
	Step 14, NOTE_A5, NOTE_B4, NOTE_A1
	Step 1, NOTE_A5, NOTE_B4, 0
	Step 15, NOTE_A5, NOTE_B4, NOTE_A2
	Step 1, 0, NOTE_B4, 0
	Step 14, NOTE_A5, NOTE_B4, NOTE_A1
	Step 1, 0, 0, 0
	Step 7, NOTE_Ab5, NOTE_C5, NOTE_A2
	Step 1, 0, NOTE_C5, NOTE_A2
	Step 7, NOTE_Gb5, NOTE_C5, NOTE_A2
	Step 1, 0, NOTE_C5, 0
	Step 14, NOTE_Ab5, NOTE_C5, NOTE_B1
	Step 1, NOTE_Ab5, 0, 0
	Step 15, NOTE_Ab5, NOTE_C5, NOTE_B2
	Step 1, 0, 0, 0
	Step 14, NOTE_E5, 0, NOTE_B1
	Step 1, 0, 0, 0
	Step 15, NOTE_G5, NOTE_E5, NOTE_B2
	Step 1, 0, NOTE_E5, 0
	Step 14, NOTE_A5, NOTE_E5, NOTE_F2
	Step 1, NOTE_A5, 0, 0
	Step 15, NOTE_A5, 0, NOTE_F3
	Step 1, 0, 0, 0
	Step 14, NOTE_F5, 0, NOTE_F2
	Step 1, NOTE_F5, 0, 0
	Step 15, NOTE_F5, NOTE_F5, NOTE_F3
	Step 1, 0, NOTE_F5, 0
	Step 14, NOTE_A5, NOTE_F5, NOTE_F2
	Step 1, NOTE_A5, 0, 0
	Step 15, NOTE_A5, NOTE_C5, NOTE_F3
	Step 1, 0, NOTE_C5, 0
	Step 14, NOTE_C6, NOTE_C5, NOTE_F2
	Step 1, NOTE_C6, 0, 0
	Step 15, NOTE_C6, NOTE_F5, NOTE_F3
	Step 1, 0, NOTE_F5, 0
	Step 14, NOTE_D6, NOTE_F5, NOTE_D2
	Step 1, NOTE_D6, 0, 0
	Step 15, NOTE_D6, 0, NOTE_D3
	Step 1, 0, 0, 0
	Step 14, NOTE_D6, 0, NOTE_D2
	Step 1, 0, 0, 0
	Step 7, NOTE_C6, NOTE_A5, NOTE_D3
	Step 1, 0, NOTE_A5, NOTE_D3
	Step 7, NOTE_D6, NOTE_A5, NOTE_D3
	Step 1, 0, NOTE_A5, 0
	Step 14, NOTE_E6, NOTE_A5, NOTE_E2
	Step 1, NOTE_E6, 0, 0
	Step 15, NOTE_E6, NOTE_A5, NOTE_E3
	Step 1, NOTE_E6, 0, 0
	Step 14, NOTE_E6, 0, NOTE_E2
	Step 1, NOTE_E6, 0, 0
	Step 15, NOTE_E6, NOTE_B5, NOTE_E3
	Step 1, 0, NOTE_B5, 0
	Step 14, 0, NOTE_B5, NOTE_A2
	Step 1, 0, NOTE_B5, 0
	Step 15, NOTE_E4, NOTE_B5, 0
	Step 1, 0, NOTE_B5, 0
	Step 14, 0, NOTE_B5, NOTE_A2
	Step 1, 0, 0, 0
	Step 15, NOTE_E4, 0, 0
	Step 1, 0, 0, 0
	Step 14, 0, NOTE_A3, NOTE_A2
	Step 1, 0, 0, 0
	Step 15, NOTE_E4, 0, 0
	Step 1, 0, 0, 0
	Step 14, 0, NOTE_A3, NOTE_A2
	Step 1, 0, 0, 0
	Step 15, NOTE_E4, 0, 0
	Step 1, 0, 0, 0
	Step 14, 0, NOTE_A3, NOTE_A2
	Step 1, 0, 0, 0
	Step 15, NOTE_E4, 0, 0
	Step 1, 0, 0, 0
	Step 14, 0, NOTE_A3, NOTE_A2
	Step 1, 0, 0, 0
	Step 15, NOTE_E4, 0, 0
	Step 1, 0, 0, 0
	Step 14, 0, NOTE_A3, NOTE_A2
	Step 1, 0, 0, 0
	Step 15, NOTE_E4, 0, 0
	Step 1, 0, 0, 0
	Step 14, 0, NOTE_A3, NOTE_A2
	Step 1, 0, 0, 0
	Step 15, NOTE_E4, 0, 0
	Step 1, 0, 0, 0
	Step 14, 0, NOTE_A3, NOTE_A2
	Step 1, 0, 0, 0
	Step 15, NOTE_E4, 0, 0
	Step 1, 0, 0, 0
	Step 14, 0, NOTE_A3, NOTE_A2
	Step 1, 0, 0, 0
	Step 15, NOTE_E4, 0, 0
	Step 1, 0, 0, 0
	Step 14, 0, NOTE_A3, NOTE_A2
	Step 1, 0, 0, 0
	Step 15, NOTE_E4, 0, 0
	Step 1, 0, 0, 0
	Step 14, 0, NOTE_A3, NOTE_A2
	Step 1, 0, 0, 0
	Step 15, NOTE_E4, 0, 0
	Step 1, 0, 0, 0
	Step 14, 0, NOTE_A3, NOTE_A2
	Step 1, 0, 0, 0
	Step 15, NOTE_E4, 0, 0
	Step 1, 0, 0, 0
	Step 14, 0, NOTE_A3, NOTE_A2
	Step 1, 0, 0, 0
	Step 15, NOTE_E4, 0, 0
	Step 1, 0, 0, 0
	Step 14, 0, NOTE_A3, NOTE_A2
	Step 1, 0, 0, 0
	Step 15, NOTE_E4, 0, 0
	Step 1, 0, 0, 0
	Step 14, 0, NOTE_A3, NOTE_A2
	Step 1, 0, 0, 0
	Step 15, NOTE_E4, 0, 0
	Step 1, 0, 0, 0
	Step 14, 0, NOTE_A3, NOTE_A2
	Step 1, 0, 0, 0
	Step 7, 0, 0, NOTE_A3
	Step 1, 0, 0, 0
	Step 7, 0, 0, NOTE_A3
	Step 1, 0, 0, 0
	Step 14, 0, NOTE_A3, NOTE_A2
	Step 1, 0, 0, 0
	Step 7, NOTE_F4, 0, NOTE_A3
	Step 1, 0, 0, NOTE_A3
	Step 7, NOTE_F4, 0, NOTE_A3
	Step 1, 0, 0, 0
	Step 6, NOTE_F4, 0, NOTE_A2
	Step 1, 0, 0, NOTE_A2
	Step 7, 0, 0, NOTE_A2
	Step 1, 0, 0, 0
	Step 3, NOTE_D4, 0, NOTE_A3
	Step 1, 0, 0, NOTE_A3
	Step 3, NOTE_D4, 0, NOTE_A3
	Step 1, 0, 0, NOTE_A3
	Step 3, NOTE_D4, 0, NOTE_A3
	Step 1, 0, 0, NOTE_A3
	Step 3, NOTE_D4, 0, NOTE_A3
	Step 1, 0, 0, 0
	Step 14, 0, 0, NOTE_A2
	Step 1, 0, 0, 0
	Step 3, NOTE_F4, 0, NOTE_A3
	Step 1, 0, 0, NOTE_A3
	Step 3, NOTE_F4, 0, NOTE_A3
	Step 1, 0, 0, NOTE_A3
	Step 3, NOTE_F4, 0, NOTE_A3
	Step 1, 0, 0, NOTE_A3
	Step 3, NOTE_F4, 0, NOTE_A3
	Step 1, 0, 0, 0
	Step 14, 0, 0, NOTE_A2
	Step 1, 0, 0, 0
	Step 7, 0, 0, NOTE_A3
	Step 1, 0, 0, 0
	Step 7, 0, 0, NOTE_A3
	Step 1, 0, 0, 0
	Step 14, 0, 0, NOTE_A2
	Step 1, 0, 0, 0
	Step 7, NOTE_E4, 0, NOTE_A3
	Step 1, 0, 0, NOTE_A3
	Step 7, NOTE_E4, 0, NOTE_A3
	Step 1, 0, 0, 0
	Step 6, NOTE_E4, 0, NOTE_A2
	Step 1, 0, 0, NOTE_A2
	Step 7, 0, 0, NOTE_A2
	Step 1, 0, 0, 0
	Step 3, NOTE_D4, 0, NOTE_A3
	Step 1, 0, 0, NOTE_A3
	Step 3, NOTE_D4, 0, NOTE_A3
	Step 1, 0, 0, NOTE_A3
	Step 3, NOTE_D4, 0, NOTE_A3
	Step 1, 0, 0, NOTE_A3
	Step 3, NOTE_D4, 0, NOTE_A3
	Step 1, 0, 0, 0
	Step 14, 0, 0, NOTE_A2
	Step 1, 0, 0, 0
	Step 3, NOTE_E4, 0, NOTE_A3
	Step 1, 0, 0, NOTE_A3
	Step 3, NOTE_E4, 0, NOTE_A3
	Step 1, 0, 0, NOTE_A3
	Step 3, NOTE_E4, 0, NOTE_A3
	Step 1, 0, 0, NOTE_A3
	Step 3, NOTE_E4, 0, NOTE_A3
	Step 1, 0, 0, 0
	Step 14, 0, 0, NOTE_A2
	Step 1, 0, 0, 0
	Step 7, 0, 0, NOTE_A3
	Step 1, 0, 0, 0
	Step 7, 0, 0, NOTE_A3
	Step 1, 0, 0, 0
	Step 14, 0, 0, NOTE_A2
	Step 1, 0, 0, 0
	Step 7, NOTE_F4, 0, NOTE_A3
	Step 1, 0, 0, NOTE_A3
	Step 7, NOTE_F4, 0, NOTE_A3
	Step 1, 0, 0, 0
	Step 6, NOTE_F4, 0, NOTE_A2
	Step 1, 0, 0, NOTE_A2
	Step 7, 0, 0, NOTE_A2
	Step 1, 0, 0, 0
	Step 3, NOTE_D4, 0, NOTE_A3
	Step 1, 0, 0, NOTE_A3
	Step 3, NOTE_D4, 0, NOTE_A3
	Step 1, 0, 0, NOTE_A3
	Step 3, NOTE_D4, 0, NOTE_A3
	Step 1, 0, 0, NOTE_A3
	Step 3, NOTE_D4, 0, NOTE_A3
	Step 1, 0, 0, 0
	Step 14, 0, 0, NOTE_A2
	Step 1, 0, 0, 0
	Step 3, NOTE_F4, 0, NOTE_A3
	Step 1, 0, 0, NOTE_A3
	Step 3, NOTE_F4, 0, NOTE_A3
	Step 1, 0, 0, NOTE_A3
	Step 3, NOTE_F4, 0, NOTE_A3
	Step 1, 0, 0, NOTE_A3
	Step 3, NOTE_F4, 0, NOTE_A3
	Step 1, 0, 0, 0
	Step 14, 0, 0, NOTE_A2
	Step 1, 0, 0, 0
	Step 7, 0, 0, NOTE_A3
	Step 1, 0, 0, 0
	Step 7, 0, 0, NOTE_A3
	Step 1, 0, 0, 0
	Step 14, 0, 0, NOTE_A2
	Step 1, 0, 0, 0
	Step 7, NOTE_E4, 0, NOTE_A3
	Step 1, 0, 0, NOTE_A3
	Step 7, NOTE_E4, 0, NOTE_A3
	Step 1, 0, 0, 0
	Step 6, NOTE_E4, 0, NOTE_A2
	Step 1, 0, 0, NOTE_A2
	Step 7, 0, 0, NOTE_A2
	Step 1, 0, 0, 0
	Step 3, NOTE_D4, 0, NOTE_A3
	Step 1, 0, 0, NOTE_A3
	Step 3, NOTE_D4, 0, NOTE_A3
	Step 1, 0, 0, NOTE_A3
	Step 3, NOTE_D4, 0, NOTE_A3
	Step 1, 0, 0, NOTE_A3
	Step 3, NOTE_D4, 0, NOTE_A3
	Step 1, 0, 0, 0
	Step 14, 0, 0, NOTE_A2
	Step 1, 0, 0, 0
	Step 3, NOTE_E4, 0, NOTE_A3
	Step 1, 0, 0, NOTE_A3
	Step 3, NOTE_E4, 0, NOTE_A3
	Step 1, 0, 0, NOTE_A3
	Step 3, NOTE_E4, 0, NOTE_A3
	Step 1, 0, 0, NOTE_A3
	Step 3, NOTE_E4, 0, NOTE_A3
	Step 1, 0, 0, 0
	Step 14, 0, 0, NOTE_A2
	Step 1, 0, 0, 0
	Step 7, 0, 0, NOTE_A3
	Step 1, 0, 0, 0
	Step 7, 0, 0, NOTE_A3
	Step 1, 0, 0, 0
	Step 14, 0, 0, NOTE_A2
	Step 1, 0, 0, 0
	Step 7, NOTE_F4, 0, NOTE_A3
	Step 1, 0, 0, NOTE_A3
	Step 7, NOTE_F4, 0, NOTE_A3
	Step 1, 0, 0, 0
	Step 6, NOTE_F4, 0, NOTE_A2
	Step 1, 0, 0, NOTE_A2
	Step 7, 0, 0, NOTE_A2
	Step 1, 0, 0, 0
	Step 3, NOTE_D4, 0, NOTE_A3
	Step 1, 0, 0, NOTE_A3
	Step 3, NOTE_D4, 0, NOTE_A3
	Step 1, 0, 0, NOTE_A3
	Step 3, NOTE_D4, 0, NOTE_A3
	Step 1, 0, 0, NOTE_A3
	Step 3, NOTE_D4, 0, NOTE_A3
	Step 1, 0, 0, 0
	Step 14, 0, 0, NOTE_A2
	Step 1, 0, 0, 0
	Step 3, NOTE_F4, 0, NOTE_A3
	Step 1, 0, 0, NOTE_A3
	Step 3, NOTE_F4, 0, NOTE_A3
	Step 1, 0, 0, NOTE_A3
	Step 3, NOTE_F4, 0, NOTE_A3
	Step 1, 0, 0, NOTE_A3
	Step 3, NOTE_F4, 0, NOTE_A3
	Step 1, 0, 0, 0
	Step 14, 0, 0, NOTE_A2
	Step 1, 0, 0, 0
	Step 7, 0, 0, NOTE_A3
	Step 1, 0, 0, 0
	Step 7, 0, 0, NOTE_A3
	Step 1, 0, 0, 0
	Step 14, 0, 0, NOTE_A2
	Step 1, 0, 0, 0
	Step 7, NOTE_E4, 0, NOTE_A3
	Step 1, 0, 0, NOTE_A3
	Step 7, NOTE_E4, 0, NOTE_A3
	Step 1, 0, 0, 0
	Step 6, NOTE_E4, 0, NOTE_A2
	Step 1, 0, 0, NOTE_A2
	Step 7, 0, 0, NOTE_A2
	Step 1, 0, 0, 0
	Step 3, NOTE_D4, 0, NOTE_A3
	Step 1, 0, 0, NOTE_A3
	Step 3, NOTE_D4, 0, NOTE_A3
	Step 1, 0, 0, NOTE_A3
	Step 3, NOTE_D4, 0, NOTE_A3
	Step 1, 0, 0, NOTE_A3
	Step 3, NOTE_D4, 0, NOTE_A3
	Step 1, 0, 0, 0
	Step 14, 0, 0, NOTE_A2
	Step 1, 0, 0, 0
	Step 3, NOTE_E4, 0, NOTE_A3
	Step 1, 0, 0, NOTE_A3
	Step 3, NOTE_E4, 0, NOTE_A3
	Step 1, 0, 0, NOTE_A3
	Step 3, NOTE_E4, 0, NOTE_A3
	Step 1, 0, 0, NOTE_A3
	Step 3, NOTE_E4, 0, NOTE_A3
	Step 1, 0, 0, 0
	Step 14, 0, 0, NOTE_A2
	Step 1, 0, 0, 0
	Step 7, 0, 0, NOTE_A3
	Step 1, 0, 0, 0
	Step 7, 0, 0, NOTE_A3
	Step 1, 0, 0, 0
	Step 14, 0, 0, NOTE_A2
	Step 1, 0, 0, 0
	Step 7, NOTE_F4, 0, NOTE_A3
	Step 1, 0, 0, NOTE_A3
	Step 7, NOTE_F4, 0, NOTE_A3
	Step 1, 0, 0, 0
	Step 6, NOTE_F4, 0, NOTE_A2
	Step 1, 0, 0, NOTE_A2
	Step 7, 0, 0, NOTE_A2
	Step 1, 0, 0, 0
	Step 3, NOTE_D4, 0, NOTE_A3
	Step 1, 0, 0, NOTE_A3
	Step 3, NOTE_D4, 0, NOTE_A3
	Step 1, 0, 0, NOTE_A3
	Step 3, NOTE_D4, 0, NOTE_A3
	Step 1, 0, 0, NOTE_A3
	Step 3, NOTE_D4, 0, NOTE_A3
	Step 1, 0, 0, 0
	Step 14, 0, 0, NOTE_A2
	Step 1, 0, 0, 0
	Step 3, NOTE_F4, 0, NOTE_A3
	Step 1, 0, 0, NOTE_A3
	Step 3, NOTE_F4, 0, NOTE_A3
	Step 1, 0, 0, NOTE_A3
	Step 3, NOTE_F4, 0, NOTE_A3
	Step 1, 0, 0, NOTE_A3
	Step 3, NOTE_F4, 0, NOTE_A3
	Step 1, 0, 0, 0
	Step 14, 0, 0, NOTE_A2
	Step 1, 0, 0, 0
	Step 7, 0, 0, NOTE_A3
	Step 1, 0, 0, 0
	Step 7, 0, 0, NOTE_A3
	Step 1, 0, 0, 0
	Step 14, 0, 0, NOTE_A2
	Step 1, 0, 0, 0
	Step 7, NOTE_E4, 0, NOTE_A3
	Step 1, 0, 0, NOTE_A3
	Step 7, NOTE_E4, 0, NOTE_A3
	Step 1, 0, 0, 0
	Step 6, NOTE_E4, 0, NOTE_A2
	Step 1, 0, 0, NOTE_A2
	Step 7, 0, 0, NOTE_A2
	Step 1, 0, 0, 0
	Step 3, NOTE_D4, 0, NOTE_A3
	Step 1, 0, 0, NOTE_A3
	Step 3, NOTE_D4, 0, NOTE_A3
	Step 1, 0, 0, NOTE_A3
	Step 3, NOTE_D4, 0, NOTE_A3
	Step 1, 0, 0, NOTE_A3
	Step 3, NOTE_D4, 0, NOTE_A3
	Step 1, 0, 0, 0
	Step 14, 0, 0, NOTE_A2
	Step 1, 0, 0, 0
	Step 3, NOTE_E4, 0, NOTE_A3
	Step 1, 0, 0, NOTE_A3
	Step 3, NOTE_E4, 0, NOTE_A3
	Step 1, 0, 0, NOTE_A3
	Step 3, NOTE_E4, 0, NOTE_A3
	Step 1, 0, 0, NOTE_A3
	Step 3, NOTE_E4, 0, NOTE_A3
	Step 1, 0, 0, 0
	Step 14, 0, 0, NOTE_A2
	Step 1, 0, 0, 0
	Step 7, 0, 0, NOTE_A3
	Step 1, 0, 0, 0
	Step 7, 0, 0, NOTE_A3
	Step 1, 0, 0, 0
	Step 14, 0, 0, NOTE_A2
	Step 1, 0, 0, 0
	Step 7, NOTE_F4, 0, NOTE_A3
	Step 1, 0, 0, NOTE_A3
	Step 7, NOTE_F4, 0, NOTE_A3
	Step 1, 0, 0, 0
	Step 6, NOTE_F4, 0, NOTE_A2
	Step 1, 0, 0, NOTE_A2
	Step 7, 0, 0, NOTE_A2
	Step 1, 0, 0, 0
	Step 3, NOTE_D4, 0, NOTE_A3
	Step 1, 0, 0, NOTE_A3
	Step 3, NOTE_D4, 0, NOTE_A3
	Step 1, 0, 0, NOTE_A3
	Step 3, NOTE_D4, 0, NOTE_A3
	Step 1, 0, 0, NOTE_A3
	Step 3, NOTE_D4, 0, NOTE_A3
	Step 1, 0, 0, 0
	Step 14, 0, 0, NOTE_A2
	Step 1, 0, 0, 0
	Step 3, NOTE_F4, 0, NOTE_A3
	Step 1, 0, 0, NOTE_A3
	Step 3, NOTE_F4, 0, NOTE_A3
	Step 1, 0, 0, NOTE_A3
	Step 3, NOTE_F4, 0, NOTE_A3
	Step 1, 0, 0, NOTE_A3
	Step 3, NOTE_F4, 0, NOTE_A3
	Step 1, 0, 0, 0
	Step 14, 0, 0, NOTE_A2
	Step 1, 0, 0, 0
	Step 7, 0, 0, NOTE_A3
	Step 1, 0, 0, 0
	Step 7, 0, 0, NOTE_A3
	Step 1, 0, 0, 0
	Step 14, 0, 0, NOTE_A2
	Step 1, 0, 0, 0
	Step 7, NOTE_E4, 0, NOTE_A3
	Step 1, 0, 0, NOTE_A3
	Step 7, NOTE_E4, 0, NOTE_A3
	Step 1, 0, 0, 0
	Step 6, NOTE_E4, 0, NOTE_A2
	Step 1, 0, 0, NOTE_A2
	Step 7, 0, 0, NOTE_A2
	Step 1, 0, 0, 0
	Step 3, NOTE_D4, 0, NOTE_A3
	Step 1, 0, 0, NOTE_A3
	Step 3, NOTE_D4, 0, NOTE_A3
	Step 1, 0, 0, NOTE_A3
	Step 3, NOTE_D4, 0, NOTE_A3
	Step 1, 0, 0, NOTE_A3
	Step 3, NOTE_D4, 0, NOTE_A3
	Step 1, 0, 0, 0
	Step 14, 0, 0, NOTE_A2
	Step 1, 0, 0, 0
	Step 3, NOTE_E4, 0, NOTE_A3
	Step 1, 0, 0, NOTE_A3
	Step 3, NOTE_E4, 0, NOTE_A3
	Step 1, 0, 0, NOTE_A3
	Step 3, NOTE_E4, 0, NOTE_A3
	Step 1, 0, 0, NOTE_A3
	Step 3, NOTE_E4, 0, NOTE_A3
	Step 1, 0, 0, 0
	Step 14, 0, 0, NOTE_A2
	Step 1, 0, 0, 0
	Step 7, 0, 0, NOTE_A3
	Step 1, 0, 0, 0
	Step 7, 0, 0, NOTE_A3
	Step 1, 0, 0, 0
	Step 14, 0, 0, NOTE_A2
	Step 1, 0, 0, 0
	Step 7, NOTE_F4, 0, NOTE_A3
	Step 1, 0, 0, NOTE_A3
	Step 7, NOTE_F4, 0, NOTE_A3
	Step 1, 0, 0, 0
	Step 6, NOTE_F4, 0, NOTE_A2
	Step 1, 0, 0, NOTE_A2
	Step 7, 0, 0, NOTE_A2
	Step 1, 0, 0, 0
	Step 3, NOTE_D4, 0, NOTE_A3
	Step 1, 0, 0, NOTE_A3
	Step 3, NOTE_D4, 0, NOTE_A3
	Step 1, 0, 0, NOTE_A3
	Step 3, NOTE_D4, 0, NOTE_A3
	Step 1, 0, 0, NOTE_A3
	Step 3, NOTE_D4, 0, NOTE_A3
	Step 1, 0, 0, 0
	Step 14, 0, 0, NOTE_A2
	Step 1, 0, 0, 0
	Step 3, NOTE_F4, 0, NOTE_A3
	Step 1, 0, 0, NOTE_A3
	Step 3, NOTE_F4, 0, NOTE_A3
	Step 1, 0, 0, NOTE_A3
	Step 3, NOTE_F4, 0, NOTE_A3
	Step 1, 0, 0, NOTE_A3
	Step 3, NOTE_F4, 0, NOTE_A3
	Step 1, 0, 0, 0
	Step 14, 0, 0, NOTE_A2
	Step 1, 0, 0, 0
	Step 7, 0, 0, NOTE_A3
	Step 1, 0, 0, 0
	Step 7, 0, 0, NOTE_A3
	Step 1, 0, 0, 0
	Step 14, 0, 0, NOTE_A2
	Step 1, 0, 0, 0
	Step 7, NOTE_E4, 0, NOTE_A3
	Step 1, 0, 0, NOTE_A3
	Step 7, NOTE_E4, 0, NOTE_A3
	Step 1, 0, 0, 0
	Step 6, NOTE_E4, 0, NOTE_A2
	Step 1, 0, 0, NOTE_A2
	Step 7, 0, 0, NOTE_A2
	Step 1, 0, 0, 0
	Step 3, NOTE_D4, 0, NOTE_A3
	Step 1, 0, 0, NOTE_A3
	Step 3, NOTE_D4, 0, NOTE_A3
	Step 1, 0, 0, NOTE_A3
	Step 3, NOTE_D4, 0, NOTE_A3
	Step 1, 0, 0, NOTE_A3
	Step 3, NOTE_D4, 0, NOTE_A3
	Step 1, 0, 0, 0
	Step 14, 0, 0, NOTE_A2
	Step 1, 0, 0, 0
	Step 3, NOTE_E4, 0, NOTE_A3
	Step 1, 0, 0, NOTE_A3
	Step 3, NOTE_E4, 0, NOTE_A3
	Step 1, 0, 0, NOTE_A3
	Step 3, NOTE_E4, 0, NOTE_A3
	Step 1, 0, 0, NOTE_A3
	Step 3, NOTE_E4, 0, NOTE_A3
	Step 1, 0, 0, 0
	Step 46, 0, 0, 0
	EndSong L11Music
